%TF.GenerationSoftware,KiCad,Pcbnew,9.0.1*%
%TF.CreationDate,2025-05-06T13:11:29-06:00*%
%TF.ProjectId,2025_04_STM32F103_RobotBrain,32303235-5f30-4345-9f53-544d33324631,rev?*%
%TF.SameCoordinates,Original*%
%TF.FileFunction,Copper,L2,Bot*%
%TF.FilePolarity,Positive*%
%FSLAX46Y46*%
G04 Gerber Fmt 4.6, Leading zero omitted, Abs format (unit mm)*
G04 Created by KiCad (PCBNEW 9.0.1) date 2025-05-06 13:11:29*
%MOMM*%
%LPD*%
G01*
G04 APERTURE LIST*
G04 Aperture macros list*
%AMRoundRect*
0 Rectangle with rounded corners*
0 $1 Rounding radius*
0 $2 $3 $4 $5 $6 $7 $8 $9 X,Y pos of 4 corners*
0 Add a 4 corners polygon primitive as box body*
4,1,4,$2,$3,$4,$5,$6,$7,$8,$9,$2,$3,0*
0 Add four circle primitives for the rounded corners*
1,1,$1+$1,$2,$3*
1,1,$1+$1,$4,$5*
1,1,$1+$1,$6,$7*
1,1,$1+$1,$8,$9*
0 Add four rect primitives between the rounded corners*
20,1,$1+$1,$2,$3,$4,$5,0*
20,1,$1+$1,$4,$5,$6,$7,0*
20,1,$1+$1,$6,$7,$8,$9,0*
20,1,$1+$1,$8,$9,$2,$3,0*%
G04 Aperture macros list end*
%TA.AperFunction,ComponentPad*%
%ADD10RoundRect,0.250000X-0.600000X-0.750000X0.600000X-0.750000X0.600000X0.750000X-0.600000X0.750000X0*%
%TD*%
%TA.AperFunction,ComponentPad*%
%ADD11O,1.700000X2.000000*%
%TD*%
%TA.AperFunction,ComponentPad*%
%ADD12R,1.700000X1.700000*%
%TD*%
%TA.AperFunction,ComponentPad*%
%ADD13O,1.700000X1.700000*%
%TD*%
%TA.AperFunction,ComponentPad*%
%ADD14RoundRect,0.250000X0.725000X-0.600000X0.725000X0.600000X-0.725000X0.600000X-0.725000X-0.600000X0*%
%TD*%
%TA.AperFunction,ComponentPad*%
%ADD15O,1.950000X1.700000*%
%TD*%
%TA.AperFunction,ComponentPad*%
%ADD16RoundRect,0.250000X-0.725000X0.600000X-0.725000X-0.600000X0.725000X-0.600000X0.725000X0.600000X0*%
%TD*%
%TA.AperFunction,ComponentPad*%
%ADD17RoundRect,0.250000X-0.600000X-0.725000X0.600000X-0.725000X0.600000X0.725000X-0.600000X0.725000X0*%
%TD*%
%TA.AperFunction,ComponentPad*%
%ADD18O,1.700000X1.950000*%
%TD*%
%TA.AperFunction,ViaPad*%
%ADD19C,0.600000*%
%TD*%
%TA.AperFunction,Conductor*%
%ADD20C,0.381000*%
%TD*%
G04 APERTURE END LIST*
D10*
%TO.P,J6,1,Pin_1*%
%TO.N,+3V3*%
X122580000Y-99900000D03*
D11*
%TO.P,J6,2,Pin_2*%
%TO.N,GND*%
X125080000Y-99900000D03*
%TD*%
D12*
%TO.P,J9,1,Pin_1*%
%TO.N,+3V3*%
X178500000Y-49800000D03*
D13*
%TO.P,J9,2,Pin_2*%
%TO.N,/PS2_SCK*%
X178500000Y-47260000D03*
%TO.P,J9,3,Pin_3*%
%TO.N,unconnected-(J9-Pin_3-Pad3)*%
X178500000Y-44720000D03*
%TO.P,J9,4,Pin_4*%
%TO.N,/PS2_CS*%
X178500000Y-42180000D03*
%TO.P,J9,5,Pin_5*%
%TO.N,GND*%
X178500000Y-39640000D03*
%TO.P,J9,6,Pin_6*%
%TO.N,/PS2_MISO*%
X178500000Y-37100000D03*
%TO.P,J9,7,Pin_7*%
%TO.N,/PS2_MOSI*%
X178500000Y-34560000D03*
%TD*%
D14*
%TO.P,J8,1,Pin_1*%
%TO.N,/E2A*%
X157890000Y-100070000D03*
D15*
%TO.P,J8,2,Pin_2*%
%TO.N,/E2B*%
X157890000Y-97570000D03*
%TO.P,J8,3,Pin_3*%
%TO.N,/E1A*%
X157890000Y-95070000D03*
%TO.P,J8,4,Pin_4*%
%TO.N,/E1B*%
X157890000Y-92570000D03*
%TO.P,J8,5,Pin_5*%
%TO.N,/PWR_ADC*%
X157890000Y-90070000D03*
%TD*%
D12*
%TO.P,J2,1,Pin_1*%
%TO.N,+5V*%
X176465000Y-79835000D03*
D13*
%TO.P,J2,2,Pin_2*%
%TO.N,GND*%
X176465000Y-77295000D03*
%TO.P,J2,3,Pin_3*%
%TO.N,/IMU_I2C_SCL*%
X176465000Y-74755000D03*
%TO.P,J2,4,Pin_4*%
%TO.N,/IMU_I2C_SDA*%
X176465000Y-72215000D03*
%TO.P,J2,5,Pin_5*%
%TO.N,unconnected-(J2-Pin_5-Pad5)*%
X176465000Y-69675000D03*
%TO.P,J2,6,Pin_6*%
%TO.N,unconnected-(J2-Pin_6-Pad6)*%
X176465000Y-67135000D03*
%TO.P,J2,7,Pin_7*%
%TO.N,unconnected-(J2-Pin_7-Pad7)*%
X176465000Y-64595000D03*
%TO.P,J2,8,Pin_8*%
%TO.N,/IMU_INT*%
X176465000Y-62055000D03*
%TD*%
D12*
%TO.P,J4,1,Pin_1*%
%TO.N,+3V3*%
X116160000Y-40040000D03*
D13*
%TO.P,J4,2,Pin_2*%
%TO.N,/SWCLK*%
X118700000Y-40040000D03*
%TO.P,J4,3,Pin_3*%
%TO.N,GND*%
X121240000Y-40040000D03*
%TO.P,J4,4,Pin_4*%
%TO.N,/SWDIO*%
X123780000Y-40040000D03*
%TD*%
D16*
%TO.P,J11,1,Pin_1*%
%TO.N,+3V3*%
X98720000Y-46270000D03*
D15*
%TO.P,J11,2,Pin_2*%
%TO.N,/USER_TX*%
X98720000Y-48770000D03*
%TO.P,J11,3,Pin_3*%
%TO.N,/USER_RX*%
X98720000Y-51270000D03*
%TO.P,J11,4,Pin_4*%
%TO.N,GND*%
X98720000Y-53770000D03*
%TD*%
D12*
%TO.P,J3,1,Pin_1*%
%TO.N,+5V*%
X134460000Y-103485000D03*
D13*
%TO.P,J3,2,Pin_2*%
%TO.N,/ULTRA_TRIG*%
X137000000Y-103485000D03*
%TO.P,J3,3,Pin_3*%
%TO.N,/ULTRA_ECHO*%
X139540000Y-103485000D03*
%TO.P,J3,4,Pin_4*%
%TO.N,GND*%
X142080000Y-103485000D03*
%TD*%
D17*
%TO.P,J7,1,Pin_1*%
%TO.N,/AN2*%
X152500000Y-48825000D03*
D18*
%TO.P,J7,2,Pin_2*%
%TO.N,/AN1*%
X155000000Y-48825000D03*
%TO.P,J7,3,Pin_3*%
%TO.N,/BN2*%
X157500000Y-48825000D03*
%TO.P,J7,4,Pin_4*%
%TO.N,/BN1*%
X160000000Y-48825000D03*
%TD*%
D10*
%TO.P,J5,1,Pin_1*%
%TO.N,+5V*%
X111750000Y-99875000D03*
D11*
%TO.P,J5,2,Pin_2*%
%TO.N,GND*%
X114250000Y-99875000D03*
%TD*%
D14*
%TO.P,J10,1,Pin_1*%
%TO.N,+3V3*%
X97510000Y-78760000D03*
D15*
%TO.P,J10,2,Pin_2*%
%TO.N,/X1*%
X97510000Y-76260000D03*
%TO.P,J10,3,Pin_3*%
%TO.N,/X2*%
X97510000Y-73760000D03*
%TO.P,J10,4,Pin_4*%
%TO.N,/X3*%
X97510000Y-71260000D03*
%TO.P,J10,5,Pin_5*%
%TO.N,/X4*%
X97510000Y-68760000D03*
%TO.P,J10,6,Pin_6*%
%TO.N,GND*%
X97510000Y-66260000D03*
%TD*%
D19*
%TO.N,GND*%
X102700000Y-91300001D03*
X100600000Y-91300001D03*
X100700000Y-93300001D03*
X102550000Y-93300001D03*
X153500000Y-108400001D03*
X151150000Y-106600001D03*
X163550000Y-66050001D03*
X163550000Y-63600001D03*
X159049997Y-34767000D03*
X159049997Y-33300001D03*
%TO.N,+3V3*%
X159850000Y-34767000D03*
X159850000Y-33300001D03*
X164450000Y-65962000D03*
X102700000Y-90400000D03*
X100600000Y-90400000D03*
X164450000Y-63600000D03*
%TO.N,GND*%
X135300000Y-31060000D03*
X135310000Y-31970000D03*
X138320000Y-48630000D03*
X101550000Y-104940000D03*
X136780000Y-35480000D03*
X137200000Y-59890000D03*
X135310000Y-36460000D03*
X100250000Y-97140000D03*
X148430000Y-76280000D03*
X133260000Y-70570000D03*
X160490000Y-38990000D03*
X156300000Y-38970000D03*
X135310000Y-75730000D03*
X141240000Y-79920000D03*
X116610000Y-74610000D03*
X162820000Y-30550000D03*
X150070000Y-72380000D03*
X174000000Y-92900000D03*
X132070000Y-71580000D03*
X133640000Y-85390000D03*
X141410000Y-36420000D03*
X145110000Y-70690000D03*
X173350000Y-99580000D03*
X153880000Y-30560000D03*
X148580000Y-83950000D03*
X135220000Y-88640000D03*
X141420000Y-37150000D03*
X141430000Y-31900000D03*
X141430000Y-31090000D03*
X157700000Y-38950000D03*
X175680000Y-106180000D03*
X148460000Y-78570000D03*
X137960000Y-77270000D03*
X148070000Y-63560000D03*
X148400000Y-32585000D03*
X156420000Y-36240000D03*
X130690000Y-76070000D03*
X133510000Y-59260000D03*
X142390000Y-77290000D03*
X173990000Y-90010000D03*
X142300000Y-74080000D03*
X147470000Y-58420000D03*
X135310000Y-37250000D03*
X147170000Y-41280000D03*
%TO.N,+5V*%
X100650000Y-94200000D03*
X102532000Y-94200000D03*
X151097081Y-107482081D03*
X153473027Y-107523027D03*
%TD*%
D20*
%TO.N,+3V3*%
X159850000Y-33300001D02*
X159850000Y-34767000D01*
X164450000Y-63600000D02*
X164450000Y-65962000D01*
X102700000Y-90400000D02*
X100600000Y-90400000D01*
%TO.N,+5V*%
X151200001Y-107585001D02*
X153411053Y-107585001D01*
X151097081Y-107482081D02*
X151200001Y-107585001D01*
X102532000Y-94200000D02*
X100650000Y-94200000D01*
X153411053Y-107585001D02*
X153473027Y-107523027D01*
%TD*%
%TA.AperFunction,Conductor*%
%TO.N,GND*%
G36*
X179103736Y-30250727D02*
G01*
X179393796Y-30268272D01*
X179408657Y-30270076D01*
X179690797Y-30321781D01*
X179705334Y-30325364D01*
X179979182Y-30410699D01*
X179993163Y-30416001D01*
X180254732Y-30533724D01*
X180267987Y-30540681D01*
X180513458Y-30689072D01*
X180525776Y-30697574D01*
X180751573Y-30874474D01*
X180762781Y-30884404D01*
X180965595Y-31087219D01*
X180975525Y-31098427D01*
X181152422Y-31324218D01*
X181160928Y-31336541D01*
X181309315Y-31582004D01*
X181316274Y-31595263D01*
X181433996Y-31856832D01*
X181439305Y-31870833D01*
X181524634Y-32144664D01*
X181528218Y-32159202D01*
X181579922Y-32441340D01*
X181581727Y-32456205D01*
X181593124Y-32644620D01*
X181595513Y-32684110D01*
X181599274Y-32746274D01*
X181599500Y-32753761D01*
X181599500Y-106746250D01*
X181599274Y-106753737D01*
X181581728Y-107043795D01*
X181579923Y-107058660D01*
X181528219Y-107340798D01*
X181524635Y-107355336D01*
X181439304Y-107629175D01*
X181433994Y-107643177D01*
X181316277Y-107904731D01*
X181309319Y-107917989D01*
X181160928Y-108163459D01*
X181152422Y-108175782D01*
X180975525Y-108401573D01*
X180965595Y-108412781D01*
X180762781Y-108615596D01*
X180751573Y-108625526D01*
X180525782Y-108802422D01*
X180513458Y-108810928D01*
X180267987Y-108959319D01*
X180254730Y-108966277D01*
X179993176Y-109083994D01*
X179979174Y-109089304D01*
X179705335Y-109174635D01*
X179690797Y-109178219D01*
X179408659Y-109229923D01*
X179393794Y-109231728D01*
X179200701Y-109243408D01*
X179103712Y-109249275D01*
X179096240Y-109249501D01*
X95103752Y-109249501D01*
X95096265Y-109249275D01*
X94806205Y-109231729D01*
X94791340Y-109229924D01*
X94509202Y-109178220D01*
X94494664Y-109174636D01*
X94220832Y-109089307D01*
X94206831Y-109083998D01*
X93945263Y-108966276D01*
X93932004Y-108959317D01*
X93686540Y-108810929D01*
X93674217Y-108802423D01*
X93448426Y-108625527D01*
X93437218Y-108615597D01*
X93234403Y-108412782D01*
X93224473Y-108401574D01*
X93139226Y-108292765D01*
X93047572Y-108175777D01*
X93039074Y-108163466D01*
X92890679Y-107917989D01*
X92883724Y-107904737D01*
X92864153Y-107861253D01*
X92765999Y-107643163D01*
X92760692Y-107629167D01*
X92752186Y-107601871D01*
X92690288Y-107403234D01*
X150296581Y-107403234D01*
X150296581Y-107560927D01*
X150327342Y-107715570D01*
X150327345Y-107715582D01*
X150387683Y-107861253D01*
X150387690Y-107861266D01*
X150475291Y-107992369D01*
X150475294Y-107992373D01*
X150586788Y-108103867D01*
X150586792Y-108103870D01*
X150717895Y-108191471D01*
X150717908Y-108191478D01*
X150816745Y-108232417D01*
X150863584Y-108251818D01*
X151018234Y-108282580D01*
X151018237Y-108282581D01*
X151018239Y-108282581D01*
X151175924Y-108282581D01*
X151175924Y-108282580D01*
X151197023Y-108278384D01*
X151221215Y-108276001D01*
X151268058Y-108276001D01*
X153174396Y-108276001D01*
X153221844Y-108285438D01*
X153239530Y-108292764D01*
X153239535Y-108292765D01*
X153239538Y-108292766D01*
X153394180Y-108323526D01*
X153394183Y-108323527D01*
X153394185Y-108323527D01*
X153551871Y-108323527D01*
X153551872Y-108323526D01*
X153706524Y-108292764D01*
X153852206Y-108232421D01*
X153983316Y-108144816D01*
X154094816Y-108033316D01*
X154182421Y-107902206D01*
X154242764Y-107756524D01*
X154273527Y-107601869D01*
X154273527Y-107444185D01*
X154273527Y-107444182D01*
X154273526Y-107444180D01*
X154265381Y-107403234D01*
X154242764Y-107289530D01*
X154225802Y-107248579D01*
X154182424Y-107143854D01*
X154182417Y-107143841D01*
X154094816Y-107012738D01*
X154094813Y-107012734D01*
X153983319Y-106901240D01*
X153983315Y-106901237D01*
X153852212Y-106813636D01*
X153852199Y-106813629D01*
X153706528Y-106753291D01*
X153706516Y-106753288D01*
X153551872Y-106722527D01*
X153551869Y-106722527D01*
X153394185Y-106722527D01*
X153394182Y-106722527D01*
X153239537Y-106753288D01*
X153239525Y-106753291D01*
X153093854Y-106813629D01*
X153093842Y-106813636D01*
X153004845Y-106873103D01*
X152938168Y-106893981D01*
X152935954Y-106894001D01*
X151692442Y-106894001D01*
X151625403Y-106874316D01*
X151612365Y-106863809D01*
X151612080Y-106864157D01*
X151607369Y-106860291D01*
X151476266Y-106772690D01*
X151476253Y-106772683D01*
X151330582Y-106712345D01*
X151330570Y-106712342D01*
X151175926Y-106681581D01*
X151175923Y-106681581D01*
X151018239Y-106681581D01*
X151018236Y-106681581D01*
X150863591Y-106712342D01*
X150863579Y-106712345D01*
X150717908Y-106772683D01*
X150717895Y-106772690D01*
X150586792Y-106860291D01*
X150586788Y-106860294D01*
X150475294Y-106971788D01*
X150475291Y-106971792D01*
X150387690Y-107102895D01*
X150387683Y-107102908D01*
X150327345Y-107248579D01*
X150327342Y-107248591D01*
X150296581Y-107403234D01*
X92690288Y-107403234D01*
X92675362Y-107355335D01*
X92671779Y-107340798D01*
X92654879Y-107248579D01*
X92620074Y-107058658D01*
X92618270Y-107043795D01*
X92616391Y-107012738D01*
X92600726Y-106753752D01*
X92600500Y-106746265D01*
X92600500Y-102587135D01*
X133109500Y-102587135D01*
X133109500Y-104382870D01*
X133109501Y-104382876D01*
X133115908Y-104442483D01*
X133166202Y-104577328D01*
X133166206Y-104577335D01*
X133252452Y-104692544D01*
X133252455Y-104692547D01*
X133367664Y-104778793D01*
X133367671Y-104778797D01*
X133502517Y-104829091D01*
X133502516Y-104829091D01*
X133509444Y-104829835D01*
X133562127Y-104835500D01*
X135357872Y-104835499D01*
X135417483Y-104829091D01*
X135552331Y-104778796D01*
X135667546Y-104692546D01*
X135753796Y-104577331D01*
X135802810Y-104445916D01*
X135844681Y-104389984D01*
X135910145Y-104365566D01*
X135978418Y-104380417D01*
X136006673Y-104401569D01*
X136120213Y-104515109D01*
X136292179Y-104640048D01*
X136292181Y-104640049D01*
X136292184Y-104640051D01*
X136481588Y-104736557D01*
X136683757Y-104802246D01*
X136893713Y-104835500D01*
X136893714Y-104835500D01*
X137106286Y-104835500D01*
X137106287Y-104835500D01*
X137316243Y-104802246D01*
X137518412Y-104736557D01*
X137707816Y-104640051D01*
X137794138Y-104577335D01*
X137879786Y-104515109D01*
X137879788Y-104515106D01*
X137879792Y-104515104D01*
X138030104Y-104364792D01*
X138030106Y-104364788D01*
X138030109Y-104364786D01*
X138155048Y-104192820D01*
X138155047Y-104192820D01*
X138155051Y-104192816D01*
X138159514Y-104184054D01*
X138207488Y-104133259D01*
X138275308Y-104116463D01*
X138341444Y-104138999D01*
X138380486Y-104184056D01*
X138384951Y-104192820D01*
X138509890Y-104364786D01*
X138660213Y-104515109D01*
X138832179Y-104640048D01*
X138832181Y-104640049D01*
X138832184Y-104640051D01*
X139021588Y-104736557D01*
X139223757Y-104802246D01*
X139433713Y-104835500D01*
X139433714Y-104835500D01*
X139646286Y-104835500D01*
X139646287Y-104835500D01*
X139856243Y-104802246D01*
X140058412Y-104736557D01*
X140247816Y-104640051D01*
X140334138Y-104577335D01*
X140419786Y-104515109D01*
X140419788Y-104515106D01*
X140419792Y-104515104D01*
X140570104Y-104364792D01*
X140570106Y-104364788D01*
X140570109Y-104364786D01*
X140695048Y-104192820D01*
X140695051Y-104192816D01*
X140699793Y-104183508D01*
X140747763Y-104132711D01*
X140815583Y-104115911D01*
X140881719Y-104138445D01*
X140920763Y-104183500D01*
X140925377Y-104192555D01*
X141050272Y-104364459D01*
X141050276Y-104364464D01*
X141200535Y-104514723D01*
X141200540Y-104514727D01*
X141372442Y-104639620D01*
X141561782Y-104736095D01*
X141763871Y-104801757D01*
X141830000Y-104812231D01*
X141830000Y-103918012D01*
X141887007Y-103950925D01*
X142014174Y-103985000D01*
X142145826Y-103985000D01*
X142272993Y-103950925D01*
X142330000Y-103918012D01*
X142330000Y-104812230D01*
X142396126Y-104801757D01*
X142396129Y-104801757D01*
X142598217Y-104736095D01*
X142787557Y-104639620D01*
X142959459Y-104514727D01*
X142959464Y-104514723D01*
X143109723Y-104364464D01*
X143109727Y-104364459D01*
X143234620Y-104192557D01*
X143331095Y-104003217D01*
X143396757Y-103801129D01*
X143396757Y-103801126D01*
X143407231Y-103735000D01*
X142513012Y-103735000D01*
X142545925Y-103677993D01*
X142580000Y-103550826D01*
X142580000Y-103419174D01*
X142545925Y-103292007D01*
X142513012Y-103235000D01*
X143407231Y-103235000D01*
X143396757Y-103168873D01*
X143396757Y-103168870D01*
X143331095Y-102966782D01*
X143234620Y-102777442D01*
X143109727Y-102605540D01*
X143109723Y-102605535D01*
X142959464Y-102455276D01*
X142959459Y-102455272D01*
X142787557Y-102330379D01*
X142598215Y-102233903D01*
X142396124Y-102168241D01*
X142330000Y-102157768D01*
X142330000Y-103051988D01*
X142272993Y-103019075D01*
X142145826Y-102985000D01*
X142014174Y-102985000D01*
X141887007Y-103019075D01*
X141830000Y-103051988D01*
X141830000Y-102157768D01*
X141829999Y-102157768D01*
X141763875Y-102168241D01*
X141561784Y-102233903D01*
X141372442Y-102330379D01*
X141200540Y-102455272D01*
X141200535Y-102455276D01*
X141050276Y-102605535D01*
X141050272Y-102605540D01*
X140925378Y-102777443D01*
X140920762Y-102786502D01*
X140872784Y-102837295D01*
X140804963Y-102854087D01*
X140738829Y-102831546D01*
X140699794Y-102786493D01*
X140695051Y-102777184D01*
X140695049Y-102777181D01*
X140695048Y-102777179D01*
X140570109Y-102605213D01*
X140419786Y-102454890D01*
X140247820Y-102329951D01*
X140058414Y-102233444D01*
X140058413Y-102233443D01*
X140058412Y-102233443D01*
X139856243Y-102167754D01*
X139856241Y-102167753D01*
X139856240Y-102167753D01*
X139694957Y-102142208D01*
X139646287Y-102134500D01*
X139433713Y-102134500D01*
X139385042Y-102142208D01*
X139223760Y-102167753D01*
X139021585Y-102233444D01*
X138832179Y-102329951D01*
X138660213Y-102454890D01*
X138509890Y-102605213D01*
X138384949Y-102777182D01*
X138380484Y-102785946D01*
X138332509Y-102836742D01*
X138264688Y-102853536D01*
X138198553Y-102830998D01*
X138159516Y-102785946D01*
X138155050Y-102777182D01*
X138030109Y-102605213D01*
X137879786Y-102454890D01*
X137707820Y-102329951D01*
X137518414Y-102233444D01*
X137518413Y-102233443D01*
X137518412Y-102233443D01*
X137316243Y-102167754D01*
X137316241Y-102167753D01*
X137316240Y-102167753D01*
X137154957Y-102142208D01*
X137106287Y-102134500D01*
X136893713Y-102134500D01*
X136845042Y-102142208D01*
X136683760Y-102167753D01*
X136481585Y-102233444D01*
X136292179Y-102329951D01*
X136120215Y-102454889D01*
X136006673Y-102568431D01*
X135945350Y-102601915D01*
X135875658Y-102596931D01*
X135819725Y-102555059D01*
X135802810Y-102524082D01*
X135753797Y-102392671D01*
X135753793Y-102392664D01*
X135667547Y-102277455D01*
X135667544Y-102277452D01*
X135552335Y-102191206D01*
X135552328Y-102191202D01*
X135417482Y-102140908D01*
X135417483Y-102140908D01*
X135357883Y-102134501D01*
X135357881Y-102134500D01*
X135357873Y-102134500D01*
X135357864Y-102134500D01*
X133562129Y-102134500D01*
X133562123Y-102134501D01*
X133502516Y-102140908D01*
X133367671Y-102191202D01*
X133367664Y-102191206D01*
X133252455Y-102277452D01*
X133252452Y-102277455D01*
X133166206Y-102392664D01*
X133166202Y-102392671D01*
X133115908Y-102527517D01*
X133109501Y-102587116D01*
X133109500Y-102587135D01*
X92600500Y-102587135D01*
X92600500Y-99074983D01*
X110399500Y-99074983D01*
X110399500Y-100675001D01*
X110399501Y-100675018D01*
X110410000Y-100777796D01*
X110410001Y-100777799D01*
X110465185Y-100944331D01*
X110465186Y-100944334D01*
X110557288Y-101093656D01*
X110681344Y-101217712D01*
X110830666Y-101309814D01*
X110997203Y-101364999D01*
X111099991Y-101375500D01*
X112400008Y-101375499D01*
X112502797Y-101364999D01*
X112669334Y-101309814D01*
X112818656Y-101217712D01*
X112942712Y-101093656D01*
X113034814Y-100944334D01*
X113034814Y-100944331D01*
X113038448Y-100938441D01*
X113090395Y-100891716D01*
X113159358Y-100880493D01*
X113223440Y-100908336D01*
X113231668Y-100915856D01*
X113370535Y-101054723D01*
X113370540Y-101054727D01*
X113542442Y-101179620D01*
X113731782Y-101276095D01*
X113933871Y-101341757D01*
X114000000Y-101352231D01*
X114000000Y-100308012D01*
X114057007Y-100340925D01*
X114184174Y-100375000D01*
X114315826Y-100375000D01*
X114442993Y-100340925D01*
X114500000Y-100308012D01*
X114500000Y-101352230D01*
X114566126Y-101341757D01*
X114566129Y-101341757D01*
X114768217Y-101276095D01*
X114957557Y-101179620D01*
X115129459Y-101054727D01*
X115129464Y-101054723D01*
X115279723Y-100904464D01*
X115279727Y-100904459D01*
X115404620Y-100732557D01*
X115501095Y-100543217D01*
X115566757Y-100341130D01*
X115566757Y-100341127D01*
X115600000Y-100131246D01*
X115600000Y-100125000D01*
X114683012Y-100125000D01*
X114715925Y-100067993D01*
X114750000Y-99940826D01*
X114750000Y-99809174D01*
X114715925Y-99682007D01*
X114683012Y-99625000D01*
X115600000Y-99625000D01*
X115600000Y-99618753D01*
X115566757Y-99408872D01*
X115566757Y-99408869D01*
X115501094Y-99206780D01*
X115473758Y-99153130D01*
X115473757Y-99153129D01*
X115446677Y-99099983D01*
X121229500Y-99099983D01*
X121229500Y-100700001D01*
X121229501Y-100700018D01*
X121240000Y-100802796D01*
X121240001Y-100802799D01*
X121273690Y-100904464D01*
X121295186Y-100969334D01*
X121387288Y-101118656D01*
X121511344Y-101242712D01*
X121660666Y-101334814D01*
X121827203Y-101389999D01*
X121929991Y-101400500D01*
X123230008Y-101400499D01*
X123332797Y-101389999D01*
X123499334Y-101334814D01*
X123648656Y-101242712D01*
X123772712Y-101118656D01*
X123864814Y-100969334D01*
X123864814Y-100969331D01*
X123868448Y-100963441D01*
X123920395Y-100916716D01*
X123989358Y-100905493D01*
X124053440Y-100933336D01*
X124061668Y-100940856D01*
X124200535Y-101079723D01*
X124200540Y-101079727D01*
X124372442Y-101204620D01*
X124561782Y-101301095D01*
X124763871Y-101366757D01*
X124830000Y-101377231D01*
X124830000Y-100333012D01*
X124887007Y-100365925D01*
X125014174Y-100400000D01*
X125145826Y-100400000D01*
X125272993Y-100365925D01*
X125330000Y-100333012D01*
X125330000Y-101377230D01*
X125396126Y-101366757D01*
X125396129Y-101366757D01*
X125598217Y-101301095D01*
X125787557Y-101204620D01*
X125959459Y-101079727D01*
X125959464Y-101079723D01*
X126109723Y-100929464D01*
X126109727Y-100929459D01*
X126234620Y-100757557D01*
X126331095Y-100568217D01*
X126396757Y-100366130D01*
X126396757Y-100366127D01*
X126430000Y-100156246D01*
X126430000Y-100150000D01*
X125513012Y-100150000D01*
X125545925Y-100092993D01*
X125580000Y-99965826D01*
X125580000Y-99834174D01*
X125545925Y-99707007D01*
X125513012Y-99650000D01*
X126430000Y-99650000D01*
X126430000Y-99643753D01*
X126396757Y-99433872D01*
X126396757Y-99433869D01*
X126331095Y-99231782D01*
X126234620Y-99042442D01*
X126109727Y-98870540D01*
X126109723Y-98870535D01*
X125959464Y-98720276D01*
X125959459Y-98720272D01*
X125787557Y-98595379D01*
X125598215Y-98498903D01*
X125396124Y-98433241D01*
X125330000Y-98422768D01*
X125330000Y-99466988D01*
X125272993Y-99434075D01*
X125145826Y-99400000D01*
X125014174Y-99400000D01*
X124887007Y-99434075D01*
X124830000Y-99466988D01*
X124830000Y-98422768D01*
X124829999Y-98422768D01*
X124763875Y-98433241D01*
X124561784Y-98498903D01*
X124372442Y-98595379D01*
X124200541Y-98720271D01*
X124061668Y-98859144D01*
X124000345Y-98892628D01*
X123930653Y-98887644D01*
X123874720Y-98845772D01*
X123868448Y-98836558D01*
X123799670Y-98725051D01*
X123772712Y-98681344D01*
X123648656Y-98557288D01*
X123499334Y-98465186D01*
X123332797Y-98410001D01*
X123332795Y-98410000D01*
X123230010Y-98399500D01*
X121929998Y-98399500D01*
X121929981Y-98399501D01*
X121827203Y-98410000D01*
X121827200Y-98410001D01*
X121660668Y-98465185D01*
X121660663Y-98465187D01*
X121511342Y-98557289D01*
X121387289Y-98681342D01*
X121295187Y-98830663D01*
X121295185Y-98830668D01*
X121276305Y-98887644D01*
X121240001Y-98997203D01*
X121240001Y-98997204D01*
X121240000Y-98997204D01*
X121229500Y-99099983D01*
X115446677Y-99099983D01*
X115404620Y-99017442D01*
X115279727Y-98845540D01*
X115279723Y-98845535D01*
X115129464Y-98695276D01*
X115129459Y-98695272D01*
X114957557Y-98570379D01*
X114768215Y-98473903D01*
X114566124Y-98408241D01*
X114500000Y-98397768D01*
X114500000Y-99441988D01*
X114442993Y-99409075D01*
X114315826Y-99375000D01*
X114184174Y-99375000D01*
X114057007Y-99409075D01*
X114000000Y-99441988D01*
X114000000Y-98397768D01*
X113999999Y-98397768D01*
X113933875Y-98408241D01*
X113731784Y-98473903D01*
X113542442Y-98570379D01*
X113370541Y-98695271D01*
X113231668Y-98834144D01*
X113170345Y-98867628D01*
X113100653Y-98862644D01*
X113044720Y-98820772D01*
X113038448Y-98811558D01*
X112985272Y-98725346D01*
X112942712Y-98656344D01*
X112818656Y-98532288D01*
X112669334Y-98440186D01*
X112502797Y-98385001D01*
X112502795Y-98385000D01*
X112400010Y-98374500D01*
X111099998Y-98374500D01*
X111099981Y-98374501D01*
X110997203Y-98385000D01*
X110997200Y-98385001D01*
X110830668Y-98440185D01*
X110830663Y-98440187D01*
X110681342Y-98532289D01*
X110557289Y-98656342D01*
X110465187Y-98805663D01*
X110465185Y-98805668D01*
X110443689Y-98870540D01*
X110410001Y-98972203D01*
X110410001Y-98972204D01*
X110410000Y-98972204D01*
X110399500Y-99074983D01*
X92600500Y-99074983D01*
X92600500Y-94121153D01*
X99849500Y-94121153D01*
X99849500Y-94278846D01*
X99880261Y-94433489D01*
X99880264Y-94433501D01*
X99940602Y-94579172D01*
X99940609Y-94579185D01*
X100028210Y-94710288D01*
X100028213Y-94710292D01*
X100139707Y-94821786D01*
X100139711Y-94821789D01*
X100270814Y-94909390D01*
X100270827Y-94909397D01*
X100416498Y-94969735D01*
X100416503Y-94969737D01*
X100547992Y-94995892D01*
X100571153Y-95000499D01*
X100571156Y-95000500D01*
X100571158Y-95000500D01*
X100728844Y-95000500D01*
X100728845Y-95000499D01*
X100883497Y-94969737D01*
X101029179Y-94909394D01*
X101029188Y-94909387D01*
X101034553Y-94906521D01*
X101035705Y-94908676D01*
X101092131Y-94891019D01*
X101094323Y-94891000D01*
X102087677Y-94891000D01*
X102146509Y-94908275D01*
X102147447Y-94906521D01*
X102152815Y-94909390D01*
X102152821Y-94909394D01*
X102152827Y-94909396D01*
X102152828Y-94909397D01*
X102292446Y-94967228D01*
X102298503Y-94969737D01*
X102429992Y-94995892D01*
X102453153Y-95000499D01*
X102453156Y-95000500D01*
X102453158Y-95000500D01*
X102610844Y-95000500D01*
X102610845Y-95000499D01*
X102765497Y-94969737D01*
X102878166Y-94923067D01*
X102911172Y-94909397D01*
X102911172Y-94909396D01*
X102911179Y-94909394D01*
X103042289Y-94821789D01*
X103153789Y-94710289D01*
X103241394Y-94579179D01*
X103301737Y-94433497D01*
X103332500Y-94278842D01*
X103332500Y-94135259D01*
X106349500Y-94135259D01*
X106349500Y-94364742D01*
X106374100Y-94551585D01*
X106379452Y-94592239D01*
X106411083Y-94710288D01*
X106438842Y-94813888D01*
X106526650Y-95025877D01*
X106526656Y-95025889D01*
X106613487Y-95176286D01*
X106641392Y-95224618D01*
X106781081Y-95406662D01*
X106781089Y-95406671D01*
X106943330Y-95568912D01*
X106943338Y-95568919D01*
X107125382Y-95708608D01*
X107125385Y-95708609D01*
X107125388Y-95708612D01*
X107324112Y-95823345D01*
X107324117Y-95823347D01*
X107324123Y-95823350D01*
X107415480Y-95861191D01*
X107536113Y-95911159D01*
X107757762Y-95970549D01*
X107985266Y-96000501D01*
X107985273Y-96000501D01*
X108214727Y-96000501D01*
X108214734Y-96000501D01*
X108442238Y-95970549D01*
X108663887Y-95911159D01*
X108875888Y-95823345D01*
X109074612Y-95708612D01*
X109256661Y-95568920D01*
X109256665Y-95568915D01*
X109256670Y-95568912D01*
X109418911Y-95406671D01*
X109418914Y-95406666D01*
X109418919Y-95406662D01*
X109558611Y-95224613D01*
X109673344Y-95025889D01*
X109761158Y-94813888D01*
X109820548Y-94592239D01*
X109850500Y-94364735D01*
X109850500Y-94135267D01*
X109820548Y-93907763D01*
X109761158Y-93686114D01*
X109687787Y-93508981D01*
X109673349Y-93474124D01*
X109673346Y-93474118D01*
X109673344Y-93474113D01*
X109558611Y-93275389D01*
X109558608Y-93275386D01*
X109558607Y-93275383D01*
X109418918Y-93093339D01*
X109418911Y-93093331D01*
X109256670Y-92931090D01*
X109256661Y-92931082D01*
X109074617Y-92791393D01*
X108875890Y-92676658D01*
X108875876Y-92676651D01*
X108663887Y-92588843D01*
X108442238Y-92529453D01*
X108404215Y-92524447D01*
X108214741Y-92499501D01*
X108214734Y-92499501D01*
X107985266Y-92499501D01*
X107985258Y-92499501D01*
X107768715Y-92528010D01*
X107757762Y-92529453D01*
X107664076Y-92554555D01*
X107536112Y-92588843D01*
X107324123Y-92676651D01*
X107324109Y-92676658D01*
X107125382Y-92791393D01*
X106943338Y-92931082D01*
X106781081Y-93093339D01*
X106641392Y-93275383D01*
X106526657Y-93474110D01*
X106526650Y-93474124D01*
X106438842Y-93686113D01*
X106379453Y-93907760D01*
X106379451Y-93907771D01*
X106349500Y-94135259D01*
X103332500Y-94135259D01*
X103332500Y-94121158D01*
X103332500Y-94121155D01*
X103332499Y-94121153D01*
X103316335Y-94039894D01*
X103301737Y-93966503D01*
X103277410Y-93907771D01*
X103241397Y-93820827D01*
X103241390Y-93820814D01*
X103153789Y-93689711D01*
X103153786Y-93689707D01*
X103042292Y-93578213D01*
X103042288Y-93578210D01*
X102911185Y-93490609D01*
X102911172Y-93490602D01*
X102765501Y-93430264D01*
X102765489Y-93430261D01*
X102610845Y-93399500D01*
X102610842Y-93399500D01*
X102453158Y-93399500D01*
X102453155Y-93399500D01*
X102298510Y-93430261D01*
X102298498Y-93430264D01*
X102152828Y-93490602D01*
X102147447Y-93493479D01*
X102146294Y-93491323D01*
X102089869Y-93508981D01*
X102087677Y-93509000D01*
X101094323Y-93509000D01*
X101035490Y-93491724D01*
X101034553Y-93493479D01*
X101029181Y-93490607D01*
X101029179Y-93490606D01*
X101029176Y-93490605D01*
X101029171Y-93490602D01*
X100883501Y-93430264D01*
X100883489Y-93430261D01*
X100728845Y-93399500D01*
X100728842Y-93399500D01*
X100571158Y-93399500D01*
X100571155Y-93399500D01*
X100416510Y-93430261D01*
X100416498Y-93430264D01*
X100270827Y-93490602D01*
X100270814Y-93490609D01*
X100139711Y-93578210D01*
X100139707Y-93578213D01*
X100028213Y-93689707D01*
X100028210Y-93689711D01*
X99940609Y-93820814D01*
X99940602Y-93820827D01*
X99880264Y-93966498D01*
X99880261Y-93966510D01*
X99849500Y-94121153D01*
X92600500Y-94121153D01*
X92600500Y-90321153D01*
X99799500Y-90321153D01*
X99799500Y-90478846D01*
X99830261Y-90633489D01*
X99830264Y-90633501D01*
X99890602Y-90779172D01*
X99890609Y-90779185D01*
X99978210Y-90910288D01*
X99978213Y-90910292D01*
X100089707Y-91021786D01*
X100089711Y-91021789D01*
X100220814Y-91109390D01*
X100220827Y-91109397D01*
X100366498Y-91169735D01*
X100366503Y-91169737D01*
X100521153Y-91200499D01*
X100521156Y-91200500D01*
X100521158Y-91200500D01*
X100678844Y-91200500D01*
X100678845Y-91200499D01*
X100833497Y-91169737D01*
X100979179Y-91109394D01*
X100979188Y-91109387D01*
X100984553Y-91106521D01*
X100985705Y-91108676D01*
X101042131Y-91091019D01*
X101044323Y-91091000D01*
X102255677Y-91091000D01*
X102314509Y-91108275D01*
X102315447Y-91106521D01*
X102320815Y-91109390D01*
X102320821Y-91109394D01*
X102466503Y-91169737D01*
X102621153Y-91200499D01*
X102621156Y-91200500D01*
X102621158Y-91200500D01*
X102778844Y-91200500D01*
X102778845Y-91200499D01*
X102933497Y-91169737D01*
X103079179Y-91109394D01*
X103210289Y-91021789D01*
X103321789Y-90910289D01*
X103409394Y-90779179D01*
X103469737Y-90633497D01*
X103500500Y-90478842D01*
X103500500Y-90321158D01*
X103500500Y-90321155D01*
X103500499Y-90321153D01*
X103469738Y-90166510D01*
X103469737Y-90166503D01*
X103469735Y-90166498D01*
X103409394Y-90020820D01*
X103371236Y-89963713D01*
X156414500Y-89963713D01*
X156414500Y-90176286D01*
X156437444Y-90321153D01*
X156447754Y-90386243D01*
X156477841Y-90478842D01*
X156513444Y-90588414D01*
X156609951Y-90777820D01*
X156734890Y-90949786D01*
X156885209Y-91100105D01*
X156885214Y-91100109D01*
X157049793Y-91219682D01*
X157092459Y-91275011D01*
X157098438Y-91344625D01*
X157065833Y-91406420D01*
X157049793Y-91420318D01*
X156885214Y-91539890D01*
X156885209Y-91539894D01*
X156734890Y-91690213D01*
X156609951Y-91862179D01*
X156513444Y-92051585D01*
X156447753Y-92253760D01*
X156414500Y-92463713D01*
X156414500Y-92676286D01*
X156447753Y-92886239D01*
X156513444Y-93088414D01*
X156609951Y-93277820D01*
X156734890Y-93449786D01*
X156885209Y-93600105D01*
X156885214Y-93600109D01*
X157049793Y-93719682D01*
X157092459Y-93775011D01*
X157098438Y-93844625D01*
X157065833Y-93906420D01*
X157049793Y-93920318D01*
X156885214Y-94039890D01*
X156885209Y-94039894D01*
X156734890Y-94190213D01*
X156609951Y-94362179D01*
X156513444Y-94551585D01*
X156447753Y-94753760D01*
X156423217Y-94908676D01*
X156414500Y-94963713D01*
X156414500Y-95176287D01*
X156447754Y-95386243D01*
X156507109Y-95568919D01*
X156513444Y-95588414D01*
X156609951Y-95777820D01*
X156734890Y-95949786D01*
X156885209Y-96100105D01*
X156885214Y-96100109D01*
X157049793Y-96219682D01*
X157092459Y-96275011D01*
X157098438Y-96344625D01*
X157065833Y-96406420D01*
X157049793Y-96420318D01*
X156885214Y-96539890D01*
X156885209Y-96539894D01*
X156734890Y-96690213D01*
X156609951Y-96862179D01*
X156513444Y-97051585D01*
X156447753Y-97253760D01*
X156414500Y-97463713D01*
X156414500Y-97676286D01*
X156447753Y-97886239D01*
X156513444Y-98088414D01*
X156609951Y-98277820D01*
X156734890Y-98449786D01*
X156873705Y-98588601D01*
X156907190Y-98649924D01*
X156902206Y-98719616D01*
X156860334Y-98775549D01*
X156851121Y-98781821D01*
X156696342Y-98877289D01*
X156572289Y-99001342D01*
X156480187Y-99150663D01*
X156480185Y-99150668D01*
X156461592Y-99206780D01*
X156425001Y-99317203D01*
X156425001Y-99317204D01*
X156425000Y-99317204D01*
X156414500Y-99419983D01*
X156414500Y-100720001D01*
X156414501Y-100720018D01*
X156425000Y-100822796D01*
X156425001Y-100822799D01*
X156464122Y-100940856D01*
X156480186Y-100989334D01*
X156572288Y-101138656D01*
X156696344Y-101262712D01*
X156845666Y-101354814D01*
X157012203Y-101409999D01*
X157114991Y-101420500D01*
X158665008Y-101420499D01*
X158767797Y-101409999D01*
X158934334Y-101354814D01*
X159083656Y-101262712D01*
X159207712Y-101138656D01*
X159299814Y-100989334D01*
X159354999Y-100822797D01*
X159365500Y-100720009D01*
X159365499Y-99419992D01*
X159354999Y-99317203D01*
X159299814Y-99150666D01*
X159207712Y-99001344D01*
X159083656Y-98877288D01*
X158934334Y-98785186D01*
X158934333Y-98785185D01*
X158928878Y-98781821D01*
X158882154Y-98729873D01*
X158870931Y-98660910D01*
X158898775Y-98596828D01*
X158906272Y-98588623D01*
X159045104Y-98449792D01*
X159052083Y-98440187D01*
X159170048Y-98277820D01*
X159170047Y-98277820D01*
X159170051Y-98277816D01*
X159266557Y-98088412D01*
X159332246Y-97886243D01*
X159365500Y-97676287D01*
X159365500Y-97463713D01*
X159332246Y-97253757D01*
X159266557Y-97051588D01*
X159170051Y-96862184D01*
X159170049Y-96862181D01*
X159170048Y-96862179D01*
X159045109Y-96690213D01*
X158894792Y-96539896D01*
X158894784Y-96539890D01*
X158730204Y-96420316D01*
X158687540Y-96364989D01*
X158681561Y-96295376D01*
X158714166Y-96233580D01*
X158730199Y-96219686D01*
X158894792Y-96100104D01*
X159045104Y-95949792D01*
X159045106Y-95949788D01*
X159045109Y-95949786D01*
X159170048Y-95777820D01*
X159170047Y-95777820D01*
X159170051Y-95777816D01*
X159266557Y-95588412D01*
X159332246Y-95386243D01*
X159365500Y-95176287D01*
X159365500Y-94963713D01*
X159332246Y-94753757D01*
X159266557Y-94551588D01*
X159170051Y-94362184D01*
X159170049Y-94362181D01*
X159170048Y-94362179D01*
X159055193Y-94204093D01*
X159045109Y-94190214D01*
X159045105Y-94190209D01*
X158990155Y-94135259D01*
X164349500Y-94135259D01*
X164349500Y-94364742D01*
X164374100Y-94551585D01*
X164379452Y-94592239D01*
X164411083Y-94710288D01*
X164438842Y-94813888D01*
X164526650Y-95025877D01*
X164526656Y-95025889D01*
X164613487Y-95176286D01*
X164641392Y-95224618D01*
X164781081Y-95406662D01*
X164781089Y-95406671D01*
X164943330Y-95568912D01*
X164943338Y-95568919D01*
X165125382Y-95708608D01*
X165125385Y-95708609D01*
X165125388Y-95708612D01*
X165324112Y-95823345D01*
X165324117Y-95823347D01*
X165324123Y-95823350D01*
X165415480Y-95861191D01*
X165536113Y-95911159D01*
X165757762Y-95970549D01*
X165985266Y-96000501D01*
X165985273Y-96000501D01*
X166214727Y-96000501D01*
X166214734Y-96000501D01*
X166442238Y-95970549D01*
X166663887Y-95911159D01*
X166875888Y-95823345D01*
X167074612Y-95708612D01*
X167256661Y-95568920D01*
X167256665Y-95568915D01*
X167256670Y-95568912D01*
X167418911Y-95406671D01*
X167418914Y-95406666D01*
X167418919Y-95406662D01*
X167558611Y-95224613D01*
X167673344Y-95025889D01*
X167761158Y-94813888D01*
X167820548Y-94592239D01*
X167850500Y-94364735D01*
X167850500Y-94135267D01*
X167820548Y-93907763D01*
X167761158Y-93686114D01*
X167687787Y-93508981D01*
X167673349Y-93474124D01*
X167673346Y-93474118D01*
X167673344Y-93474113D01*
X167558611Y-93275389D01*
X167558608Y-93275386D01*
X167558607Y-93275383D01*
X167418918Y-93093339D01*
X167418911Y-93093331D01*
X167256670Y-92931090D01*
X167256661Y-92931082D01*
X167074617Y-92791393D01*
X166875890Y-92676658D01*
X166875876Y-92676651D01*
X166663887Y-92588843D01*
X166442238Y-92529453D01*
X166404215Y-92524447D01*
X166214741Y-92499501D01*
X166214734Y-92499501D01*
X165985266Y-92499501D01*
X165985258Y-92499501D01*
X165768715Y-92528010D01*
X165757762Y-92529453D01*
X165664076Y-92554555D01*
X165536112Y-92588843D01*
X165324123Y-92676651D01*
X165324109Y-92676658D01*
X165125382Y-92791393D01*
X164943338Y-92931082D01*
X164781081Y-93093339D01*
X164641392Y-93275383D01*
X164526657Y-93474110D01*
X164526650Y-93474124D01*
X164438842Y-93686113D01*
X164379453Y-93907760D01*
X164379451Y-93907771D01*
X164349500Y-94135259D01*
X158990155Y-94135259D01*
X158894792Y-94039896D01*
X158884520Y-94032433D01*
X158730204Y-93920316D01*
X158687540Y-93864989D01*
X158681561Y-93795376D01*
X158714166Y-93733580D01*
X158730199Y-93719686D01*
X158894792Y-93600104D01*
X159045104Y-93449792D01*
X159045106Y-93449788D01*
X159045109Y-93449786D01*
X159170048Y-93277820D01*
X159170047Y-93277820D01*
X159170051Y-93277816D01*
X159266557Y-93088412D01*
X159332246Y-92886243D01*
X159365500Y-92676287D01*
X159365500Y-92463713D01*
X159332246Y-92253757D01*
X159266557Y-92051588D01*
X159170051Y-91862184D01*
X159170049Y-91862181D01*
X159170048Y-91862179D01*
X159045109Y-91690213D01*
X158894792Y-91539896D01*
X158894784Y-91539890D01*
X158730204Y-91420316D01*
X158687540Y-91364989D01*
X158681561Y-91295376D01*
X158714166Y-91233580D01*
X158730199Y-91219686D01*
X158894792Y-91100104D01*
X159045104Y-90949792D01*
X159045106Y-90949788D01*
X159045109Y-90949786D01*
X159170048Y-90777820D01*
X159170047Y-90777820D01*
X159170051Y-90777816D01*
X159266557Y-90588412D01*
X159332246Y-90386243D01*
X159365500Y-90176287D01*
X159365500Y-89963713D01*
X159332246Y-89753757D01*
X159266557Y-89551588D01*
X159170051Y-89362184D01*
X159170049Y-89362181D01*
X159170048Y-89362179D01*
X159045109Y-89190213D01*
X158894786Y-89039890D01*
X158722820Y-88914951D01*
X158533414Y-88818444D01*
X158533413Y-88818443D01*
X158533412Y-88818443D01*
X158331243Y-88752754D01*
X158331241Y-88752753D01*
X158331240Y-88752753D01*
X158169957Y-88727208D01*
X158121287Y-88719500D01*
X157658713Y-88719500D01*
X157610042Y-88727208D01*
X157448760Y-88752753D01*
X157246585Y-88818444D01*
X157057179Y-88914951D01*
X156885213Y-89039890D01*
X156734890Y-89190213D01*
X156609951Y-89362179D01*
X156513444Y-89551585D01*
X156513443Y-89551587D01*
X156513443Y-89551588D01*
X156480598Y-89652672D01*
X156447753Y-89753760D01*
X156414500Y-89963713D01*
X103371236Y-89963713D01*
X103321789Y-89889711D01*
X103321786Y-89889707D01*
X103210292Y-89778213D01*
X103210288Y-89778210D01*
X103079185Y-89690609D01*
X103079172Y-89690602D01*
X102933501Y-89630264D01*
X102933489Y-89630261D01*
X102778845Y-89599500D01*
X102778842Y-89599500D01*
X102621158Y-89599500D01*
X102621155Y-89599500D01*
X102466510Y-89630261D01*
X102466498Y-89630264D01*
X102320828Y-89690602D01*
X102315447Y-89693479D01*
X102314294Y-89691323D01*
X102257869Y-89708981D01*
X102255677Y-89709000D01*
X101044323Y-89709000D01*
X100985490Y-89691724D01*
X100984553Y-89693479D01*
X100979181Y-89690607D01*
X100979179Y-89690606D01*
X100979176Y-89690605D01*
X100979171Y-89690602D01*
X100833501Y-89630264D01*
X100833489Y-89630261D01*
X100678845Y-89599500D01*
X100678842Y-89599500D01*
X100521158Y-89599500D01*
X100521155Y-89599500D01*
X100366510Y-89630261D01*
X100366498Y-89630264D01*
X100220827Y-89690602D01*
X100220814Y-89690609D01*
X100089711Y-89778210D01*
X100089707Y-89778213D01*
X99978213Y-89889707D01*
X99978210Y-89889711D01*
X99890609Y-90020814D01*
X99890602Y-90020827D01*
X99830264Y-90166498D01*
X99830261Y-90166510D01*
X99799500Y-90321153D01*
X92600500Y-90321153D01*
X92600500Y-68653713D01*
X96034500Y-68653713D01*
X96034500Y-68866286D01*
X96067753Y-69076239D01*
X96133444Y-69278414D01*
X96229951Y-69467820D01*
X96354890Y-69639786D01*
X96505209Y-69790105D01*
X96505214Y-69790109D01*
X96669793Y-69909682D01*
X96712459Y-69965011D01*
X96718438Y-70034625D01*
X96685833Y-70096420D01*
X96669793Y-70110318D01*
X96505214Y-70229890D01*
X96505209Y-70229894D01*
X96354890Y-70380213D01*
X96229951Y-70552179D01*
X96133444Y-70741585D01*
X96067753Y-70943760D01*
X96034500Y-71153713D01*
X96034500Y-71366286D01*
X96067753Y-71576239D01*
X96133444Y-71778414D01*
X96229951Y-71967820D01*
X96354890Y-72139786D01*
X96505209Y-72290105D01*
X96505214Y-72290109D01*
X96669793Y-72409682D01*
X96712459Y-72465011D01*
X96718438Y-72534625D01*
X96685833Y-72596420D01*
X96669793Y-72610318D01*
X96505214Y-72729890D01*
X96505209Y-72729894D01*
X96354890Y-72880213D01*
X96229951Y-73052179D01*
X96133444Y-73241585D01*
X96067753Y-73443760D01*
X96034500Y-73653713D01*
X96034500Y-73866286D01*
X96063150Y-74047179D01*
X96067754Y-74076243D01*
X96119853Y-74236588D01*
X96133444Y-74278414D01*
X96229951Y-74467820D01*
X96354890Y-74639786D01*
X96505209Y-74790105D01*
X96505214Y-74790109D01*
X96669793Y-74909682D01*
X96712459Y-74965011D01*
X96718438Y-75034625D01*
X96685833Y-75096420D01*
X96669793Y-75110318D01*
X96505214Y-75229890D01*
X96505209Y-75229894D01*
X96354890Y-75380213D01*
X96229951Y-75552179D01*
X96133444Y-75741585D01*
X96067753Y-75943760D01*
X96042136Y-76105500D01*
X96034500Y-76153713D01*
X96034500Y-76366287D01*
X96067754Y-76576243D01*
X96132913Y-76776782D01*
X96133444Y-76778414D01*
X96229951Y-76967820D01*
X96354890Y-77139786D01*
X96493705Y-77278601D01*
X96527190Y-77339924D01*
X96522206Y-77409616D01*
X96480334Y-77465549D01*
X96471121Y-77471821D01*
X96316342Y-77567289D01*
X96192289Y-77691342D01*
X96100187Y-77840663D01*
X96100186Y-77840666D01*
X96045001Y-78007203D01*
X96045001Y-78007204D01*
X96045000Y-78007204D01*
X96034500Y-78109983D01*
X96034500Y-79410001D01*
X96034501Y-79410018D01*
X96045000Y-79512796D01*
X96045001Y-79512799D01*
X96100185Y-79679331D01*
X96100186Y-79679334D01*
X96192288Y-79828656D01*
X96316344Y-79952712D01*
X96465666Y-80044814D01*
X96632203Y-80099999D01*
X96734991Y-80110500D01*
X98285008Y-80110499D01*
X98387797Y-80099999D01*
X98554334Y-80044814D01*
X98703656Y-79952712D01*
X98827712Y-79828656D01*
X98919814Y-79679334D01*
X98974999Y-79512797D01*
X98985500Y-79410009D01*
X98985499Y-78742671D01*
X98985499Y-78109998D01*
X98985498Y-78109981D01*
X98974999Y-78007203D01*
X98974998Y-78007200D01*
X98973459Y-78002557D01*
X98919814Y-77840666D01*
X98827712Y-77691344D01*
X98703656Y-77567288D01*
X98554334Y-77475186D01*
X98554333Y-77475185D01*
X98548878Y-77471821D01*
X98502154Y-77419873D01*
X98490931Y-77350910D01*
X98518775Y-77286828D01*
X98526272Y-77278623D01*
X98665104Y-77139792D01*
X98790051Y-76967816D01*
X98886557Y-76778412D01*
X98952246Y-76576243D01*
X98985500Y-76366287D01*
X98985500Y-76153713D01*
X98952246Y-75943757D01*
X98886557Y-75741588D01*
X98790051Y-75552184D01*
X98790049Y-75552181D01*
X98790048Y-75552179D01*
X98665109Y-75380213D01*
X98514792Y-75229896D01*
X98514784Y-75229890D01*
X98350204Y-75110316D01*
X98307540Y-75054989D01*
X98301561Y-74985376D01*
X98334166Y-74923580D01*
X98350199Y-74909686D01*
X98514792Y-74790104D01*
X98665104Y-74639792D01*
X98665106Y-74639788D01*
X98665109Y-74639786D01*
X98790048Y-74467820D01*
X98790047Y-74467820D01*
X98790051Y-74467816D01*
X98886557Y-74278412D01*
X98952246Y-74076243D01*
X98985500Y-73866287D01*
X98985500Y-73653713D01*
X98952246Y-73443757D01*
X98886557Y-73241588D01*
X98790051Y-73052184D01*
X98790049Y-73052181D01*
X98790048Y-73052179D01*
X98665109Y-72880213D01*
X98514792Y-72729896D01*
X98514784Y-72729890D01*
X98350204Y-72610316D01*
X98307540Y-72554989D01*
X98301561Y-72485376D01*
X98334166Y-72423580D01*
X98350199Y-72409686D01*
X98514792Y-72290104D01*
X98665104Y-72139792D01*
X98665106Y-72139788D01*
X98665109Y-72139786D01*
X98790048Y-71967820D01*
X98790047Y-71967820D01*
X98790051Y-71967816D01*
X98886557Y-71778412D01*
X98952246Y-71576243D01*
X98985500Y-71366287D01*
X98985500Y-71153713D01*
X98952246Y-70943757D01*
X98886557Y-70741588D01*
X98790051Y-70552184D01*
X98790049Y-70552181D01*
X98790048Y-70552179D01*
X98665109Y-70380213D01*
X98514792Y-70229896D01*
X98464578Y-70193414D01*
X98350204Y-70110316D01*
X98307540Y-70054989D01*
X98301561Y-69985376D01*
X98334166Y-69923580D01*
X98350199Y-69909686D01*
X98514792Y-69790104D01*
X98665104Y-69639792D01*
X98665106Y-69639788D01*
X98665109Y-69639786D01*
X98790048Y-69467820D01*
X98790047Y-69467820D01*
X98790051Y-69467816D01*
X98886557Y-69278412D01*
X98952246Y-69076243D01*
X98985500Y-68866287D01*
X98985500Y-68653713D01*
X98952246Y-68443757D01*
X98886557Y-68241588D01*
X98790051Y-68052184D01*
X98790049Y-68052181D01*
X98790048Y-68052179D01*
X98665109Y-67880213D01*
X98514790Y-67729894D01*
X98514785Y-67729890D01*
X98349781Y-67610008D01*
X98307115Y-67554678D01*
X98301136Y-67485065D01*
X98333741Y-67423270D01*
X98349781Y-67409371D01*
X98514466Y-67289721D01*
X98664723Y-67139464D01*
X98664727Y-67139459D01*
X98789620Y-66967557D01*
X98886095Y-66778217D01*
X98951757Y-66576129D01*
X98951757Y-66576126D01*
X98962231Y-66510000D01*
X97914146Y-66510000D01*
X97952630Y-66443343D01*
X97985000Y-66322535D01*
X97985000Y-66197465D01*
X97952630Y-66076657D01*
X97914146Y-66010000D01*
X98962231Y-66010000D01*
X98951757Y-65943873D01*
X98951757Y-65943870D01*
X98886095Y-65741782D01*
X98789620Y-65552442D01*
X98664727Y-65380540D01*
X98664723Y-65380535D01*
X98514464Y-65230276D01*
X98514459Y-65230272D01*
X98342557Y-65105379D01*
X98153217Y-65008904D01*
X97951128Y-64943242D01*
X97760000Y-64912969D01*
X97760000Y-65855854D01*
X97693343Y-65817370D01*
X97572535Y-65785000D01*
X97447465Y-65785000D01*
X97326657Y-65817370D01*
X97260000Y-65855854D01*
X97260000Y-64912969D01*
X97068872Y-64943242D01*
X97068869Y-64943242D01*
X96866782Y-65008904D01*
X96677442Y-65105379D01*
X96505540Y-65230272D01*
X96505535Y-65230276D01*
X96355276Y-65380535D01*
X96355272Y-65380540D01*
X96230379Y-65552442D01*
X96133904Y-65741782D01*
X96068242Y-65943870D01*
X96068242Y-65943873D01*
X96057769Y-66010000D01*
X97105854Y-66010000D01*
X97067370Y-66076657D01*
X97035000Y-66197465D01*
X97035000Y-66322535D01*
X97067370Y-66443343D01*
X97105854Y-66510000D01*
X96057769Y-66510000D01*
X96068242Y-66576126D01*
X96068242Y-66576129D01*
X96133904Y-66778217D01*
X96230379Y-66967557D01*
X96355272Y-67139459D01*
X96355276Y-67139464D01*
X96505535Y-67289723D01*
X96505540Y-67289727D01*
X96670218Y-67409372D01*
X96712884Y-67464701D01*
X96718863Y-67534315D01*
X96686258Y-67596110D01*
X96670218Y-67610008D01*
X96505214Y-67729890D01*
X96505209Y-67729894D01*
X96354890Y-67880213D01*
X96229951Y-68052179D01*
X96133444Y-68241585D01*
X96067753Y-68443760D01*
X96034500Y-68653713D01*
X92600500Y-68653713D01*
X92600500Y-63521153D01*
X163649500Y-63521153D01*
X163649500Y-63678846D01*
X163680261Y-63833489D01*
X163680264Y-63833501D01*
X163740603Y-63979174D01*
X163743475Y-63984546D01*
X163741317Y-63985699D01*
X163758980Y-64042108D01*
X163759000Y-64044322D01*
X163759000Y-65517677D01*
X163741724Y-65576509D01*
X163743479Y-65577447D01*
X163740602Y-65582828D01*
X163680264Y-65728498D01*
X163680261Y-65728510D01*
X163649500Y-65883153D01*
X163649500Y-66040846D01*
X163680261Y-66195489D01*
X163680264Y-66195501D01*
X163740602Y-66341172D01*
X163740609Y-66341185D01*
X163828210Y-66472288D01*
X163828213Y-66472292D01*
X163939707Y-66583786D01*
X163939711Y-66583789D01*
X164070814Y-66671390D01*
X164070827Y-66671397D01*
X164216498Y-66731735D01*
X164216503Y-66731737D01*
X164371153Y-66762499D01*
X164371156Y-66762500D01*
X164371158Y-66762500D01*
X164528844Y-66762500D01*
X164528845Y-66762499D01*
X164683497Y-66731737D01*
X164829179Y-66671394D01*
X164960289Y-66583789D01*
X165071789Y-66472289D01*
X165159394Y-66341179D01*
X165219737Y-66195497D01*
X165250500Y-66040842D01*
X165250500Y-65883158D01*
X165250500Y-65883155D01*
X165250499Y-65883153D01*
X165245832Y-65859692D01*
X165219737Y-65728503D01*
X165159394Y-65582821D01*
X165159390Y-65582815D01*
X165156521Y-65577447D01*
X165158676Y-65576294D01*
X165141019Y-65519869D01*
X165141000Y-65517677D01*
X165141000Y-64044322D01*
X165158277Y-63985482D01*
X165156525Y-63984546D01*
X165159390Y-63979184D01*
X165159394Y-63979179D01*
X165219737Y-63833497D01*
X165250500Y-63678842D01*
X165250500Y-63521158D01*
X165250500Y-63521155D01*
X165250499Y-63521153D01*
X165234346Y-63439949D01*
X165219737Y-63366503D01*
X165202546Y-63325000D01*
X165159397Y-63220827D01*
X165159390Y-63220814D01*
X165071789Y-63089711D01*
X165071786Y-63089707D01*
X164960292Y-62978213D01*
X164960288Y-62978210D01*
X164829185Y-62890609D01*
X164829172Y-62890602D01*
X164683501Y-62830264D01*
X164683489Y-62830261D01*
X164528845Y-62799500D01*
X164528842Y-62799500D01*
X164371158Y-62799500D01*
X164371155Y-62799500D01*
X164216510Y-62830261D01*
X164216498Y-62830264D01*
X164070827Y-62890602D01*
X164070814Y-62890609D01*
X163939711Y-62978210D01*
X163939707Y-62978213D01*
X163828213Y-63089707D01*
X163828210Y-63089711D01*
X163740609Y-63220814D01*
X163740602Y-63220827D01*
X163680264Y-63366498D01*
X163680261Y-63366510D01*
X163649500Y-63521153D01*
X92600500Y-63521153D01*
X92600500Y-61948713D01*
X175114500Y-61948713D01*
X175114500Y-62161286D01*
X175147753Y-62371239D01*
X175213444Y-62573414D01*
X175309951Y-62762820D01*
X175434890Y-62934786D01*
X175585213Y-63085109D01*
X175757182Y-63210050D01*
X175765946Y-63214516D01*
X175816742Y-63262491D01*
X175833536Y-63330312D01*
X175810998Y-63396447D01*
X175765946Y-63435484D01*
X175757182Y-63439949D01*
X175585213Y-63564890D01*
X175434890Y-63715213D01*
X175309951Y-63887179D01*
X175213444Y-64076585D01*
X175147753Y-64278760D01*
X175114500Y-64488713D01*
X175114500Y-64701286D01*
X175147753Y-64911239D01*
X175213444Y-65113414D01*
X175309951Y-65302820D01*
X175434890Y-65474786D01*
X175585213Y-65625109D01*
X175757182Y-65750050D01*
X175765946Y-65754516D01*
X175816742Y-65802491D01*
X175833536Y-65870312D01*
X175810998Y-65936447D01*
X175765946Y-65975484D01*
X175757182Y-65979949D01*
X175585213Y-66104890D01*
X175434890Y-66255213D01*
X175309951Y-66427179D01*
X175213444Y-66616585D01*
X175147753Y-66818760D01*
X175114500Y-67028713D01*
X175114500Y-67241286D01*
X175141142Y-67409500D01*
X175147754Y-67451243D01*
X175197696Y-67604949D01*
X175213444Y-67653414D01*
X175309951Y-67842820D01*
X175434890Y-68014786D01*
X175585213Y-68165109D01*
X175757182Y-68290050D01*
X175765946Y-68294516D01*
X175816742Y-68342491D01*
X175833536Y-68410312D01*
X175810998Y-68476447D01*
X175765946Y-68515484D01*
X175757182Y-68519949D01*
X175585213Y-68644890D01*
X175434890Y-68795213D01*
X175309951Y-68967179D01*
X175213444Y-69156585D01*
X175147753Y-69358760D01*
X175130480Y-69467820D01*
X175114500Y-69568713D01*
X175114500Y-69781287D01*
X175115897Y-69790105D01*
X175146824Y-69985376D01*
X175147754Y-69991243D01*
X175186444Y-70110319D01*
X175213444Y-70193414D01*
X175309951Y-70382820D01*
X175434890Y-70554786D01*
X175585213Y-70705109D01*
X175757182Y-70830050D01*
X175765946Y-70834516D01*
X175816742Y-70882491D01*
X175833536Y-70950312D01*
X175810998Y-71016447D01*
X175765946Y-71055484D01*
X175757182Y-71059949D01*
X175585213Y-71184890D01*
X175434890Y-71335213D01*
X175309951Y-71507179D01*
X175213444Y-71696585D01*
X175147753Y-71898760D01*
X175136816Y-71967816D01*
X175114500Y-72108713D01*
X175114500Y-72321287D01*
X175147754Y-72531243D01*
X175173447Y-72610319D01*
X175213444Y-72733414D01*
X175309951Y-72922820D01*
X175434890Y-73094786D01*
X175585213Y-73245109D01*
X175757182Y-73370050D01*
X175765946Y-73374516D01*
X175816742Y-73422491D01*
X175833536Y-73490312D01*
X175810998Y-73556447D01*
X175765946Y-73595484D01*
X175757182Y-73599949D01*
X175585213Y-73724890D01*
X175434890Y-73875213D01*
X175309951Y-74047179D01*
X175213444Y-74236585D01*
X175213443Y-74236587D01*
X175213443Y-74236588D01*
X175199853Y-74278414D01*
X175147753Y-74438760D01*
X175114500Y-74648713D01*
X175114500Y-74861286D01*
X175145179Y-75054989D01*
X175147754Y-75071243D01*
X175160450Y-75110318D01*
X175213444Y-75273414D01*
X175309951Y-75462820D01*
X175434890Y-75634786D01*
X175585213Y-75785109D01*
X175757179Y-75910048D01*
X175757181Y-75910049D01*
X175757184Y-75910051D01*
X175766493Y-75914794D01*
X175817290Y-75962766D01*
X175834087Y-76030587D01*
X175811552Y-76096722D01*
X175766502Y-76135762D01*
X175757443Y-76140378D01*
X175585540Y-76265272D01*
X175585535Y-76265276D01*
X175435276Y-76415535D01*
X175435272Y-76415540D01*
X175310379Y-76587442D01*
X175213904Y-76776782D01*
X175148242Y-76978870D01*
X175148242Y-76978873D01*
X175137769Y-77045000D01*
X176031988Y-77045000D01*
X175999075Y-77102007D01*
X175965000Y-77229174D01*
X175965000Y-77360826D01*
X175999075Y-77487993D01*
X176031988Y-77545000D01*
X175137769Y-77545000D01*
X175148242Y-77611126D01*
X175148242Y-77611129D01*
X175213904Y-77813217D01*
X175310379Y-78002557D01*
X175435272Y-78174459D01*
X175435276Y-78174464D01*
X175548946Y-78288134D01*
X175582431Y-78349457D01*
X175577447Y-78419149D01*
X175535575Y-78475082D01*
X175504598Y-78491997D01*
X175372671Y-78541202D01*
X175372664Y-78541206D01*
X175257455Y-78627452D01*
X175257452Y-78627455D01*
X175171206Y-78742664D01*
X175171202Y-78742671D01*
X175120908Y-78877517D01*
X175114857Y-78933805D01*
X175114501Y-78937123D01*
X175114500Y-78937135D01*
X175114500Y-80732870D01*
X175114501Y-80732876D01*
X175120908Y-80792483D01*
X175171202Y-80927328D01*
X175171206Y-80927335D01*
X175257452Y-81042544D01*
X175257455Y-81042547D01*
X175372664Y-81128793D01*
X175372671Y-81128797D01*
X175507517Y-81179091D01*
X175507516Y-81179091D01*
X175514444Y-81179835D01*
X175567127Y-81185500D01*
X177362872Y-81185499D01*
X177422483Y-81179091D01*
X177557331Y-81128796D01*
X177672546Y-81042546D01*
X177758796Y-80927331D01*
X177809091Y-80792483D01*
X177815500Y-80732873D01*
X177815499Y-78937128D01*
X177809091Y-78877517D01*
X177758796Y-78742669D01*
X177758795Y-78742668D01*
X177758793Y-78742664D01*
X177672547Y-78627455D01*
X177672544Y-78627452D01*
X177557335Y-78541206D01*
X177557328Y-78541202D01*
X177425401Y-78491997D01*
X177369467Y-78450126D01*
X177345050Y-78384662D01*
X177359902Y-78316389D01*
X177381053Y-78288133D01*
X177494728Y-78174458D01*
X177619620Y-78002557D01*
X177716095Y-77813217D01*
X177781757Y-77611129D01*
X177781757Y-77611126D01*
X177792231Y-77545000D01*
X176898012Y-77545000D01*
X176930925Y-77487993D01*
X176965000Y-77360826D01*
X176965000Y-77229174D01*
X176930925Y-77102007D01*
X176898012Y-77045000D01*
X177792231Y-77045000D01*
X177781757Y-76978873D01*
X177781757Y-76978870D01*
X177716095Y-76776782D01*
X177619620Y-76587442D01*
X177494727Y-76415540D01*
X177494723Y-76415535D01*
X177344464Y-76265276D01*
X177344459Y-76265272D01*
X177172555Y-76140377D01*
X177163500Y-76135763D01*
X177112706Y-76087788D01*
X177095912Y-76019966D01*
X177118451Y-75953832D01*
X177163508Y-75914793D01*
X177172816Y-75910051D01*
X177252007Y-75852515D01*
X177344786Y-75785109D01*
X177344788Y-75785106D01*
X177344792Y-75785104D01*
X177495104Y-75634792D01*
X177495106Y-75634788D01*
X177495109Y-75634786D01*
X177620048Y-75462820D01*
X177620047Y-75462820D01*
X177620051Y-75462816D01*
X177716557Y-75273412D01*
X177782246Y-75071243D01*
X177815500Y-74861287D01*
X177815500Y-74648713D01*
X177782246Y-74438757D01*
X177716557Y-74236588D01*
X177620051Y-74047184D01*
X177620049Y-74047181D01*
X177620048Y-74047179D01*
X177495109Y-73875213D01*
X177344786Y-73724890D01*
X177172820Y-73599951D01*
X177172115Y-73599591D01*
X177164054Y-73595485D01*
X177113259Y-73547512D01*
X177096463Y-73479692D01*
X177118999Y-73413556D01*
X177164054Y-73374515D01*
X177172816Y-73370051D01*
X177194789Y-73354086D01*
X177344786Y-73245109D01*
X177344788Y-73245106D01*
X177344792Y-73245104D01*
X177495104Y-73094792D01*
X177495106Y-73094788D01*
X177495109Y-73094786D01*
X177620048Y-72922820D01*
X177620047Y-72922820D01*
X177620051Y-72922816D01*
X177716557Y-72733412D01*
X177782246Y-72531243D01*
X177815500Y-72321287D01*
X177815500Y-72108713D01*
X177782246Y-71898757D01*
X177716557Y-71696588D01*
X177620051Y-71507184D01*
X177620049Y-71507181D01*
X177620048Y-71507179D01*
X177495109Y-71335213D01*
X177344786Y-71184890D01*
X177172820Y-71059951D01*
X177172115Y-71059591D01*
X177164054Y-71055485D01*
X177113259Y-71007512D01*
X177096463Y-70939692D01*
X177118999Y-70873556D01*
X177164054Y-70834515D01*
X177172816Y-70830051D01*
X177294580Y-70741585D01*
X177344786Y-70705109D01*
X177344788Y-70705106D01*
X177344792Y-70705104D01*
X177495104Y-70554792D01*
X177495106Y-70554788D01*
X177495109Y-70554786D01*
X177620048Y-70382820D01*
X177620047Y-70382820D01*
X177620051Y-70382816D01*
X177716557Y-70193412D01*
X177782246Y-69991243D01*
X177815500Y-69781287D01*
X177815500Y-69568713D01*
X177782246Y-69358757D01*
X177716557Y-69156588D01*
X177620051Y-68967184D01*
X177620049Y-68967181D01*
X177620048Y-68967179D01*
X177495109Y-68795213D01*
X177344786Y-68644890D01*
X177172820Y-68519951D01*
X177172115Y-68519591D01*
X177164054Y-68515485D01*
X177113259Y-68467512D01*
X177096463Y-68399692D01*
X177118999Y-68333556D01*
X177164054Y-68294515D01*
X177172816Y-68290051D01*
X177239524Y-68241585D01*
X177344786Y-68165109D01*
X177344788Y-68165106D01*
X177344792Y-68165104D01*
X177495104Y-68014792D01*
X177495106Y-68014788D01*
X177495109Y-68014786D01*
X177620048Y-67842820D01*
X177620047Y-67842820D01*
X177620051Y-67842816D01*
X177716557Y-67653412D01*
X177782246Y-67451243D01*
X177815500Y-67241287D01*
X177815500Y-67028713D01*
X177782246Y-66818757D01*
X177716557Y-66616588D01*
X177620051Y-66427184D01*
X177620049Y-66427181D01*
X177620048Y-66427179D01*
X177495109Y-66255213D01*
X177344786Y-66104890D01*
X177172820Y-65979951D01*
X177172115Y-65979591D01*
X177164054Y-65975485D01*
X177113259Y-65927512D01*
X177096463Y-65859692D01*
X177118999Y-65793556D01*
X177164054Y-65754515D01*
X177172816Y-65750051D01*
X177202465Y-65728510D01*
X177344786Y-65625109D01*
X177344788Y-65625106D01*
X177344792Y-65625104D01*
X177495104Y-65474792D01*
X177495106Y-65474788D01*
X177495109Y-65474786D01*
X177620048Y-65302820D01*
X177620047Y-65302820D01*
X177620051Y-65302816D01*
X177716557Y-65113412D01*
X177782246Y-64911243D01*
X177815500Y-64701287D01*
X177815500Y-64488713D01*
X177782246Y-64278757D01*
X177716557Y-64076588D01*
X177620051Y-63887184D01*
X177620049Y-63887181D01*
X177620048Y-63887179D01*
X177495109Y-63715213D01*
X177344786Y-63564890D01*
X177172820Y-63439951D01*
X177172115Y-63439591D01*
X177164054Y-63435485D01*
X177113259Y-63387512D01*
X177096463Y-63319692D01*
X177118999Y-63253556D01*
X177164054Y-63214515D01*
X177172816Y-63210051D01*
X177194789Y-63194086D01*
X177344786Y-63085109D01*
X177344788Y-63085106D01*
X177344792Y-63085104D01*
X177495104Y-62934792D01*
X177495106Y-62934788D01*
X177495109Y-62934786D01*
X177620048Y-62762820D01*
X177620047Y-62762820D01*
X177620051Y-62762816D01*
X177716557Y-62573412D01*
X177782246Y-62371243D01*
X177815500Y-62161287D01*
X177815500Y-61948713D01*
X177782246Y-61738757D01*
X177716557Y-61536588D01*
X177620051Y-61347184D01*
X177620049Y-61347181D01*
X177620048Y-61347179D01*
X177495109Y-61175213D01*
X177344786Y-61024890D01*
X177172820Y-60899951D01*
X176983414Y-60803444D01*
X176983413Y-60803443D01*
X176983412Y-60803443D01*
X176781243Y-60737754D01*
X176781241Y-60737753D01*
X176781240Y-60737753D01*
X176619957Y-60712208D01*
X176571287Y-60704500D01*
X176358713Y-60704500D01*
X176310042Y-60712208D01*
X176148760Y-60737753D01*
X175946585Y-60803444D01*
X175757179Y-60899951D01*
X175585213Y-61024890D01*
X175434890Y-61175213D01*
X175309951Y-61347179D01*
X175213444Y-61536585D01*
X175147753Y-61738760D01*
X175114500Y-61948713D01*
X92600500Y-61948713D01*
X92600500Y-45619983D01*
X97244500Y-45619983D01*
X97244500Y-46920001D01*
X97244501Y-46920018D01*
X97255000Y-47022796D01*
X97255001Y-47022799D01*
X97310185Y-47189331D01*
X97310187Y-47189336D01*
X97402289Y-47338657D01*
X97526344Y-47462712D01*
X97681120Y-47558178D01*
X97727845Y-47610126D01*
X97739068Y-47679088D01*
X97711224Y-47743171D01*
X97703706Y-47751398D01*
X97564889Y-47890215D01*
X97439951Y-48062179D01*
X97343444Y-48251585D01*
X97277753Y-48453760D01*
X97244500Y-48663713D01*
X97244500Y-48876286D01*
X97277753Y-49086239D01*
X97343444Y-49288414D01*
X97439951Y-49477820D01*
X97564890Y-49649786D01*
X97715209Y-49800105D01*
X97715214Y-49800109D01*
X97879793Y-49919682D01*
X97922459Y-49975011D01*
X97928438Y-50044625D01*
X97895833Y-50106420D01*
X97879793Y-50120318D01*
X97715214Y-50239890D01*
X97715209Y-50239894D01*
X97564890Y-50390213D01*
X97439951Y-50562179D01*
X97343444Y-50751585D01*
X97277753Y-50953760D01*
X97244500Y-51163713D01*
X97244500Y-51376286D01*
X97277753Y-51586239D01*
X97343444Y-51788414D01*
X97439951Y-51977820D01*
X97564890Y-52149786D01*
X97715209Y-52300105D01*
X97715214Y-52300109D01*
X97880218Y-52419991D01*
X97922884Y-52475320D01*
X97928863Y-52544934D01*
X97896258Y-52606729D01*
X97880218Y-52620627D01*
X97715540Y-52740272D01*
X97715535Y-52740276D01*
X97565276Y-52890535D01*
X97565272Y-52890540D01*
X97440379Y-53062442D01*
X97343904Y-53251782D01*
X97278242Y-53453870D01*
X97278242Y-53453873D01*
X97267769Y-53520000D01*
X98315854Y-53520000D01*
X98277370Y-53586657D01*
X98245000Y-53707465D01*
X98245000Y-53832535D01*
X98277370Y-53953343D01*
X98315854Y-54020000D01*
X97267769Y-54020000D01*
X97278242Y-54086126D01*
X97278242Y-54086129D01*
X97343904Y-54288217D01*
X97440379Y-54477557D01*
X97565272Y-54649459D01*
X97565276Y-54649464D01*
X97715535Y-54799723D01*
X97715540Y-54799727D01*
X97887442Y-54924620D01*
X98076782Y-55021095D01*
X98278872Y-55086757D01*
X98470000Y-55117029D01*
X98470000Y-54174145D01*
X98536657Y-54212630D01*
X98657465Y-54245000D01*
X98782535Y-54245000D01*
X98903343Y-54212630D01*
X98970000Y-54174145D01*
X98970000Y-55117028D01*
X99161127Y-55086757D01*
X99363217Y-55021095D01*
X99552557Y-54924620D01*
X99724459Y-54799727D01*
X99724464Y-54799723D01*
X99874723Y-54649464D01*
X99874727Y-54649459D01*
X99999620Y-54477557D01*
X100096095Y-54288217D01*
X100161757Y-54086129D01*
X100161757Y-54086126D01*
X100172231Y-54020000D01*
X99124146Y-54020000D01*
X99162630Y-53953343D01*
X99195000Y-53832535D01*
X99195000Y-53707465D01*
X99162630Y-53586657D01*
X99124146Y-53520000D01*
X100172231Y-53520000D01*
X100161757Y-53453873D01*
X100161757Y-53453870D01*
X100096095Y-53251782D01*
X99999620Y-53062442D01*
X99874727Y-52890540D01*
X99874723Y-52890535D01*
X99724464Y-52740276D01*
X99724459Y-52740272D01*
X99559781Y-52620627D01*
X99517115Y-52565297D01*
X99511136Y-52495684D01*
X99543741Y-52433889D01*
X99559776Y-52419994D01*
X99724792Y-52300104D01*
X99875104Y-52149792D01*
X99875106Y-52149788D01*
X99875109Y-52149786D01*
X100000048Y-51977820D01*
X100000047Y-51977820D01*
X100000051Y-51977816D01*
X100096557Y-51788412D01*
X100162246Y-51586243D01*
X100195500Y-51376287D01*
X100195500Y-51163713D01*
X100162246Y-50953757D01*
X100096557Y-50751588D01*
X100000051Y-50562184D01*
X100000049Y-50562181D01*
X100000048Y-50562179D01*
X99875109Y-50390213D01*
X99724792Y-50239896D01*
X99717794Y-50234812D01*
X99560204Y-50120316D01*
X99517540Y-50064989D01*
X99511561Y-49995376D01*
X99544166Y-49933580D01*
X99560199Y-49919686D01*
X99724792Y-49800104D01*
X99875104Y-49649792D01*
X99875106Y-49649788D01*
X99875109Y-49649786D01*
X100000048Y-49477820D01*
X100000047Y-49477820D01*
X100000051Y-49477816D01*
X100096557Y-49288412D01*
X100162246Y-49086243D01*
X100195500Y-48876287D01*
X100195500Y-48663713D01*
X100162246Y-48453757D01*
X100096557Y-48251588D01*
X100000051Y-48062184D01*
X100000050Y-48062182D01*
X99991187Y-48049983D01*
X151149500Y-48049983D01*
X151149500Y-49600001D01*
X151149501Y-49600018D01*
X151160000Y-49702796D01*
X151160001Y-49702799D01*
X151205894Y-49841294D01*
X151215186Y-49869334D01*
X151307288Y-50018656D01*
X151431344Y-50142712D01*
X151580666Y-50234814D01*
X151747203Y-50289999D01*
X151849991Y-50300500D01*
X153150008Y-50300499D01*
X153252797Y-50289999D01*
X153419334Y-50234814D01*
X153568656Y-50142712D01*
X153692712Y-50018656D01*
X153784814Y-49869334D01*
X153784814Y-49869331D01*
X153788178Y-49863879D01*
X153840126Y-49817154D01*
X153909088Y-49805931D01*
X153973170Y-49833774D01*
X153981398Y-49841294D01*
X154120213Y-49980109D01*
X154292179Y-50105048D01*
X154292181Y-50105049D01*
X154292184Y-50105051D01*
X154481588Y-50201557D01*
X154683757Y-50267246D01*
X154893713Y-50300500D01*
X154893714Y-50300500D01*
X155106286Y-50300500D01*
X155106287Y-50300500D01*
X155316243Y-50267246D01*
X155518412Y-50201557D01*
X155707816Y-50105051D01*
X155790986Y-50044625D01*
X155879786Y-49980109D01*
X155879788Y-49980106D01*
X155879792Y-49980104D01*
X156030104Y-49829792D01*
X156149683Y-49665204D01*
X156205011Y-49622540D01*
X156274624Y-49616561D01*
X156336420Y-49649166D01*
X156350313Y-49665199D01*
X156448326Y-49800103D01*
X156469896Y-49829792D01*
X156620213Y-49980109D01*
X156792179Y-50105048D01*
X156792181Y-50105049D01*
X156792184Y-50105051D01*
X156981588Y-50201557D01*
X157183757Y-50267246D01*
X157393713Y-50300500D01*
X157393714Y-50300500D01*
X157606286Y-50300500D01*
X157606287Y-50300500D01*
X157816243Y-50267246D01*
X158018412Y-50201557D01*
X158207816Y-50105051D01*
X158290986Y-50044625D01*
X158379786Y-49980109D01*
X158379788Y-49980106D01*
X158379792Y-49980104D01*
X158530104Y-49829792D01*
X158649683Y-49665204D01*
X158705011Y-49622540D01*
X158774624Y-49616561D01*
X158836420Y-49649166D01*
X158850313Y-49665199D01*
X158948326Y-49800103D01*
X158969896Y-49829792D01*
X159120213Y-49980109D01*
X159292179Y-50105048D01*
X159292181Y-50105049D01*
X159292184Y-50105051D01*
X159481588Y-50201557D01*
X159683757Y-50267246D01*
X159893713Y-50300500D01*
X159893714Y-50300500D01*
X160106286Y-50300500D01*
X160106287Y-50300500D01*
X160316243Y-50267246D01*
X160518412Y-50201557D01*
X160707816Y-50105051D01*
X160790986Y-50044625D01*
X160879786Y-49980109D01*
X160879788Y-49980106D01*
X160879792Y-49980104D01*
X161030104Y-49829792D01*
X161030106Y-49829788D01*
X161030109Y-49829786D01*
X161155048Y-49657820D01*
X161155047Y-49657820D01*
X161155051Y-49657816D01*
X161251557Y-49468412D01*
X161317246Y-49266243D01*
X161350500Y-49056287D01*
X161350500Y-48593713D01*
X161317246Y-48383757D01*
X161251557Y-48181588D01*
X161155051Y-47992184D01*
X161155049Y-47992181D01*
X161155048Y-47992179D01*
X161030109Y-47820213D01*
X160879786Y-47669890D01*
X160707820Y-47544951D01*
X160518414Y-47448444D01*
X160518413Y-47448443D01*
X160518412Y-47448443D01*
X160316243Y-47382754D01*
X160316241Y-47382753D01*
X160316240Y-47382753D01*
X160154957Y-47357208D01*
X160106287Y-47349500D01*
X159893713Y-47349500D01*
X159845042Y-47357208D01*
X159683760Y-47382753D01*
X159481585Y-47448444D01*
X159292179Y-47544951D01*
X159120213Y-47669890D01*
X158969894Y-47820209D01*
X158969890Y-47820214D01*
X158850318Y-47984793D01*
X158794989Y-48027459D01*
X158725375Y-48033438D01*
X158663580Y-48000833D01*
X158649682Y-47984793D01*
X158530109Y-47820214D01*
X158530105Y-47820209D01*
X158379786Y-47669890D01*
X158207820Y-47544951D01*
X158018414Y-47448444D01*
X158018413Y-47448443D01*
X158018412Y-47448443D01*
X157816243Y-47382754D01*
X157816241Y-47382753D01*
X157816240Y-47382753D01*
X157654957Y-47357208D01*
X157606287Y-47349500D01*
X157393713Y-47349500D01*
X157345042Y-47357208D01*
X157183760Y-47382753D01*
X156981585Y-47448444D01*
X156792179Y-47544951D01*
X156620213Y-47669890D01*
X156469894Y-47820209D01*
X156469890Y-47820214D01*
X156350318Y-47984793D01*
X156294989Y-48027459D01*
X156225375Y-48033438D01*
X156163580Y-48000833D01*
X156149682Y-47984793D01*
X156030109Y-47820214D01*
X156030105Y-47820209D01*
X155879786Y-47669890D01*
X155707820Y-47544951D01*
X155518414Y-47448444D01*
X155518413Y-47448443D01*
X155518412Y-47448443D01*
X155316243Y-47382754D01*
X155316241Y-47382753D01*
X155316240Y-47382753D01*
X155154957Y-47357208D01*
X155106287Y-47349500D01*
X154893713Y-47349500D01*
X154845042Y-47357208D01*
X154683760Y-47382753D01*
X154481585Y-47448444D01*
X154292179Y-47544951D01*
X154120215Y-47669889D01*
X153981398Y-47808706D01*
X153920075Y-47842190D01*
X153850383Y-47837206D01*
X153794450Y-47795334D01*
X153788178Y-47786120D01*
X153692712Y-47631344D01*
X153568657Y-47507289D01*
X153568656Y-47507288D01*
X153419334Y-47415186D01*
X153252797Y-47360001D01*
X153252795Y-47360000D01*
X153150010Y-47349500D01*
X151849998Y-47349500D01*
X151849981Y-47349501D01*
X151747203Y-47360000D01*
X151747200Y-47360001D01*
X151580668Y-47415185D01*
X151580663Y-47415187D01*
X151431342Y-47507289D01*
X151307289Y-47631342D01*
X151215187Y-47780663D01*
X151215185Y-47780668D01*
X151210325Y-47795334D01*
X151160001Y-47947203D01*
X151160001Y-47947204D01*
X151160000Y-47947204D01*
X151149500Y-48049983D01*
X99991187Y-48049983D01*
X99875109Y-47890213D01*
X99736294Y-47751398D01*
X99702809Y-47690075D01*
X99707793Y-47620383D01*
X99749665Y-47564450D01*
X99758879Y-47558178D01*
X99764331Y-47554814D01*
X99764334Y-47554814D01*
X99913656Y-47462712D01*
X100037712Y-47338656D01*
X100129814Y-47189334D01*
X100184999Y-47022797D01*
X100195500Y-46920009D01*
X100195499Y-45619992D01*
X100184999Y-45517203D01*
X100129814Y-45350666D01*
X100037712Y-45201344D01*
X99971627Y-45135259D01*
X106349500Y-45135259D01*
X106349500Y-45364742D01*
X106369573Y-45517200D01*
X106379452Y-45592239D01*
X106386890Y-45619998D01*
X106438842Y-45813888D01*
X106526650Y-46025877D01*
X106526657Y-46025891D01*
X106641392Y-46224618D01*
X106781081Y-46406662D01*
X106781089Y-46406671D01*
X106943330Y-46568912D01*
X106943338Y-46568919D01*
X107125382Y-46708608D01*
X107125385Y-46708609D01*
X107125388Y-46708612D01*
X107324112Y-46823345D01*
X107324117Y-46823347D01*
X107324123Y-46823350D01*
X107415480Y-46861191D01*
X107536113Y-46911159D01*
X107757762Y-46970549D01*
X107985266Y-47000501D01*
X107985273Y-47000501D01*
X108214727Y-47000501D01*
X108214734Y-47000501D01*
X108442238Y-46970549D01*
X108663887Y-46911159D01*
X108875888Y-46823345D01*
X109074612Y-46708612D01*
X109256661Y-46568920D01*
X109256665Y-46568915D01*
X109256670Y-46568912D01*
X109418911Y-46406671D01*
X109418914Y-46406666D01*
X109418919Y-46406662D01*
X109558611Y-46224613D01*
X109673344Y-46025889D01*
X109761158Y-45813888D01*
X109820548Y-45592239D01*
X109850500Y-45364735D01*
X109850500Y-45135267D01*
X109850499Y-45135259D01*
X164349500Y-45135259D01*
X164349500Y-45364742D01*
X164369573Y-45517200D01*
X164379452Y-45592239D01*
X164386890Y-45619998D01*
X164438842Y-45813888D01*
X164526650Y-46025877D01*
X164526657Y-46025891D01*
X164641392Y-46224618D01*
X164781081Y-46406662D01*
X164781089Y-46406671D01*
X164943330Y-46568912D01*
X164943338Y-46568919D01*
X165125382Y-46708608D01*
X165125385Y-46708609D01*
X165125388Y-46708612D01*
X165324112Y-46823345D01*
X165324117Y-46823347D01*
X165324123Y-46823350D01*
X165415480Y-46861191D01*
X165536113Y-46911159D01*
X165757762Y-46970549D01*
X165985266Y-47000501D01*
X165985273Y-47000501D01*
X166214727Y-47000501D01*
X166214734Y-47000501D01*
X166442238Y-46970549D01*
X166663887Y-46911159D01*
X166875888Y-46823345D01*
X167074612Y-46708612D01*
X167256661Y-46568920D01*
X167256665Y-46568915D01*
X167256670Y-46568912D01*
X167418911Y-46406671D01*
X167418914Y-46406666D01*
X167418919Y-46406662D01*
X167558611Y-46224613D01*
X167673344Y-46025889D01*
X167761158Y-45813888D01*
X167820548Y-45592239D01*
X167850500Y-45364735D01*
X167850500Y-45135267D01*
X167820548Y-44907763D01*
X167761158Y-44686114D01*
X167697642Y-44532774D01*
X167673349Y-44474124D01*
X167673346Y-44474118D01*
X167673344Y-44474113D01*
X167558611Y-44275389D01*
X167558608Y-44275386D01*
X167558607Y-44275383D01*
X167418918Y-44093339D01*
X167418911Y-44093331D01*
X167256670Y-43931090D01*
X167256661Y-43931082D01*
X167074617Y-43791393D01*
X166875890Y-43676658D01*
X166875876Y-43676651D01*
X166663887Y-43588843D01*
X166442238Y-43529453D01*
X166404215Y-43524447D01*
X166214741Y-43499501D01*
X166214734Y-43499501D01*
X165985266Y-43499501D01*
X165985258Y-43499501D01*
X165768715Y-43528010D01*
X165757762Y-43529453D01*
X165664076Y-43554555D01*
X165536112Y-43588843D01*
X165324123Y-43676651D01*
X165324109Y-43676658D01*
X165125382Y-43791393D01*
X164943338Y-43931082D01*
X164781081Y-44093339D01*
X164641392Y-44275383D01*
X164526657Y-44474110D01*
X164526650Y-44474124D01*
X164438842Y-44686113D01*
X164379453Y-44907760D01*
X164379451Y-44907771D01*
X164349500Y-45135259D01*
X109850499Y-45135259D01*
X109820548Y-44907763D01*
X109761158Y-44686114D01*
X109697642Y-44532774D01*
X109673349Y-44474124D01*
X109673346Y-44474118D01*
X109673344Y-44474113D01*
X109558611Y-44275389D01*
X109558608Y-44275386D01*
X109558607Y-44275383D01*
X109418918Y-44093339D01*
X109418911Y-44093331D01*
X109256670Y-43931090D01*
X109256661Y-43931082D01*
X109074617Y-43791393D01*
X108875890Y-43676658D01*
X108875876Y-43676651D01*
X108663887Y-43588843D01*
X108442238Y-43529453D01*
X108404215Y-43524447D01*
X108214741Y-43499501D01*
X108214734Y-43499501D01*
X107985266Y-43499501D01*
X107985258Y-43499501D01*
X107768715Y-43528010D01*
X107757762Y-43529453D01*
X107664076Y-43554555D01*
X107536112Y-43588843D01*
X107324123Y-43676651D01*
X107324109Y-43676658D01*
X107125382Y-43791393D01*
X106943338Y-43931082D01*
X106781081Y-44093339D01*
X106641392Y-44275383D01*
X106526657Y-44474110D01*
X106526650Y-44474124D01*
X106438842Y-44686113D01*
X106379453Y-44907760D01*
X106379451Y-44907771D01*
X106349500Y-45135259D01*
X99971627Y-45135259D01*
X99913656Y-45077288D01*
X99764334Y-44985186D01*
X99597797Y-44930001D01*
X99597795Y-44930000D01*
X99495010Y-44919500D01*
X97944998Y-44919500D01*
X97944981Y-44919501D01*
X97842203Y-44930000D01*
X97842200Y-44930001D01*
X97675668Y-44985185D01*
X97675663Y-44985187D01*
X97526342Y-45077289D01*
X97402289Y-45201342D01*
X97310187Y-45350663D01*
X97310185Y-45350668D01*
X97284621Y-45427816D01*
X97255001Y-45517203D01*
X97255001Y-45517204D01*
X97255000Y-45517204D01*
X97244500Y-45619983D01*
X92600500Y-45619983D01*
X92600500Y-39142135D01*
X114809500Y-39142135D01*
X114809500Y-40937870D01*
X114809501Y-40937876D01*
X114815908Y-40997483D01*
X114866202Y-41132328D01*
X114866206Y-41132335D01*
X114952452Y-41247544D01*
X114952455Y-41247547D01*
X115067664Y-41333793D01*
X115067671Y-41333797D01*
X115202517Y-41384091D01*
X115202516Y-41384091D01*
X115209444Y-41384835D01*
X115262127Y-41390500D01*
X117057872Y-41390499D01*
X117117483Y-41384091D01*
X117252331Y-41333796D01*
X117367546Y-41247546D01*
X117453796Y-41132331D01*
X117502810Y-41000916D01*
X117544681Y-40944984D01*
X117610145Y-40920566D01*
X117678418Y-40935417D01*
X117706673Y-40956569D01*
X117820213Y-41070109D01*
X117992179Y-41195048D01*
X117992181Y-41195049D01*
X117992184Y-41195051D01*
X118181588Y-41291557D01*
X118383757Y-41357246D01*
X118593713Y-41390500D01*
X118593714Y-41390500D01*
X118806286Y-41390500D01*
X118806287Y-41390500D01*
X119016243Y-41357246D01*
X119218412Y-41291557D01*
X119407816Y-41195051D01*
X119494138Y-41132335D01*
X119579786Y-41070109D01*
X119579788Y-41070106D01*
X119579792Y-41070104D01*
X119730104Y-40919792D01*
X119730106Y-40919788D01*
X119730109Y-40919786D01*
X119817695Y-40799232D01*
X119855051Y-40747816D01*
X119859793Y-40738508D01*
X119907763Y-40687711D01*
X119975583Y-40670911D01*
X120041719Y-40693445D01*
X120080763Y-40738500D01*
X120085377Y-40747555D01*
X120210272Y-40919459D01*
X120210276Y-40919464D01*
X120360535Y-41069723D01*
X120360540Y-41069727D01*
X120532442Y-41194620D01*
X120721782Y-41291095D01*
X120923871Y-41356757D01*
X120990000Y-41367231D01*
X120990000Y-40473012D01*
X121047007Y-40505925D01*
X121174174Y-40540000D01*
X121305826Y-40540000D01*
X121432993Y-40505925D01*
X121490000Y-40473012D01*
X121490000Y-41367230D01*
X121556126Y-41356757D01*
X121556129Y-41356757D01*
X121758217Y-41291095D01*
X121947557Y-41194620D01*
X122119459Y-41069727D01*
X122119464Y-41069723D01*
X122269723Y-40919464D01*
X122269727Y-40919459D01*
X122394620Y-40747558D01*
X122399232Y-40738507D01*
X122447205Y-40687709D01*
X122515025Y-40670912D01*
X122581161Y-40693447D01*
X122620204Y-40738504D01*
X122624949Y-40747817D01*
X122749890Y-40919786D01*
X122900213Y-41070109D01*
X123072179Y-41195048D01*
X123072181Y-41195049D01*
X123072184Y-41195051D01*
X123261588Y-41291557D01*
X123463757Y-41357246D01*
X123673713Y-41390500D01*
X123673714Y-41390500D01*
X123886286Y-41390500D01*
X123886287Y-41390500D01*
X124096243Y-41357246D01*
X124298412Y-41291557D01*
X124487816Y-41195051D01*
X124574138Y-41132335D01*
X124659786Y-41070109D01*
X124659788Y-41070106D01*
X124659792Y-41070104D01*
X124810104Y-40919792D01*
X124810106Y-40919788D01*
X124810109Y-40919786D01*
X124935048Y-40747820D01*
X124935047Y-40747820D01*
X124935051Y-40747816D01*
X125031557Y-40558412D01*
X125097246Y-40356243D01*
X125130500Y-40146287D01*
X125130500Y-39933713D01*
X125097246Y-39723757D01*
X125031557Y-39521588D01*
X124935051Y-39332184D01*
X124935049Y-39332181D01*
X124935048Y-39332179D01*
X124810109Y-39160213D01*
X124659786Y-39009890D01*
X124487820Y-38884951D01*
X124298414Y-38788444D01*
X124298413Y-38788443D01*
X124298412Y-38788443D01*
X124096243Y-38722754D01*
X124096241Y-38722753D01*
X124096240Y-38722753D01*
X123934957Y-38697208D01*
X123886287Y-38689500D01*
X123673713Y-38689500D01*
X123625042Y-38697208D01*
X123463760Y-38722753D01*
X123261585Y-38788444D01*
X123072179Y-38884951D01*
X122900213Y-39009890D01*
X122749890Y-39160213D01*
X122624949Y-39332182D01*
X122620202Y-39341499D01*
X122572227Y-39392293D01*
X122504405Y-39409087D01*
X122438271Y-39386548D01*
X122399234Y-39341495D01*
X122394622Y-39332444D01*
X122269727Y-39160540D01*
X122269723Y-39160535D01*
X122119464Y-39010276D01*
X122119459Y-39010272D01*
X121947557Y-38885379D01*
X121758215Y-38788903D01*
X121556124Y-38723241D01*
X121490000Y-38712768D01*
X121490000Y-39606988D01*
X121432993Y-39574075D01*
X121305826Y-39540000D01*
X121174174Y-39540000D01*
X121047007Y-39574075D01*
X120990000Y-39606988D01*
X120990000Y-38712768D01*
X120989999Y-38712768D01*
X120923875Y-38723241D01*
X120721784Y-38788903D01*
X120532442Y-38885379D01*
X120360540Y-39010272D01*
X120360535Y-39010276D01*
X120210276Y-39160535D01*
X120210272Y-39160540D01*
X120085378Y-39332443D01*
X120080762Y-39341502D01*
X120032784Y-39392295D01*
X119964963Y-39409087D01*
X119898829Y-39386546D01*
X119859794Y-39341493D01*
X119855051Y-39332184D01*
X119855049Y-39332181D01*
X119855048Y-39332179D01*
X119730109Y-39160213D01*
X119579786Y-39009890D01*
X119407820Y-38884951D01*
X119218414Y-38788444D01*
X119218413Y-38788443D01*
X119218412Y-38788443D01*
X119016243Y-38722754D01*
X119016241Y-38722753D01*
X119016240Y-38722753D01*
X118854957Y-38697208D01*
X118806287Y-38689500D01*
X118593713Y-38689500D01*
X118545042Y-38697208D01*
X118383760Y-38722753D01*
X118181585Y-38788444D01*
X117992179Y-38884951D01*
X117820215Y-39009889D01*
X117706673Y-39123431D01*
X117645350Y-39156915D01*
X117575658Y-39151931D01*
X117519725Y-39110059D01*
X117502810Y-39079082D01*
X117453797Y-38947671D01*
X117453793Y-38947664D01*
X117367547Y-38832455D01*
X117367544Y-38832452D01*
X117252335Y-38746206D01*
X117252328Y-38746202D01*
X117117482Y-38695908D01*
X117117483Y-38695908D01*
X117057883Y-38689501D01*
X117057881Y-38689500D01*
X117057873Y-38689500D01*
X117057864Y-38689500D01*
X115262129Y-38689500D01*
X115262123Y-38689501D01*
X115202516Y-38695908D01*
X115067671Y-38746202D01*
X115067664Y-38746206D01*
X114952455Y-38832452D01*
X114952452Y-38832455D01*
X114866206Y-38947664D01*
X114866202Y-38947671D01*
X114815908Y-39082517D01*
X114809501Y-39142116D01*
X114809500Y-39142135D01*
X92600500Y-39142135D01*
X92600500Y-34373920D01*
X135429499Y-34373920D01*
X135458340Y-34518907D01*
X135458343Y-34518917D01*
X135514912Y-34655488D01*
X135514919Y-34655501D01*
X135597048Y-34778415D01*
X135597051Y-34778419D01*
X135701580Y-34882948D01*
X135701584Y-34882951D01*
X135824498Y-34965080D01*
X135824511Y-34965087D01*
X135910009Y-35000501D01*
X135961087Y-35021658D01*
X135961091Y-35021658D01*
X135961092Y-35021659D01*
X136106079Y-35050500D01*
X136106082Y-35050500D01*
X136253920Y-35050500D01*
X136351462Y-35031096D01*
X136398913Y-35021658D01*
X136535495Y-34965084D01*
X136658416Y-34882951D01*
X136762951Y-34778416D01*
X136845084Y-34655495D01*
X136901658Y-34518913D01*
X136927733Y-34387828D01*
X136930500Y-34373920D01*
X139829499Y-34373920D01*
X139858340Y-34518907D01*
X139858343Y-34518917D01*
X139914912Y-34655488D01*
X139914919Y-34655501D01*
X139997048Y-34778415D01*
X139997051Y-34778419D01*
X140101580Y-34882948D01*
X140101584Y-34882951D01*
X140224498Y-34965080D01*
X140224511Y-34965087D01*
X140310009Y-35000501D01*
X140361087Y-35021658D01*
X140361091Y-35021658D01*
X140361092Y-35021659D01*
X140506079Y-35050500D01*
X140506082Y-35050500D01*
X140653920Y-35050500D01*
X140751462Y-35031096D01*
X140798913Y-35021658D01*
X140935495Y-34965084D01*
X141058416Y-34882951D01*
X141162951Y-34778416D01*
X141245084Y-34655495D01*
X141301658Y-34518913D01*
X141327733Y-34387828D01*
X141330500Y-34373920D01*
X141330500Y-34226079D01*
X141301659Y-34081092D01*
X141301658Y-34081091D01*
X141301658Y-34081087D01*
X141285296Y-34041585D01*
X141245087Y-33944511D01*
X141245080Y-33944498D01*
X141162951Y-33821584D01*
X141162948Y-33821580D01*
X141058419Y-33717051D01*
X141058415Y-33717048D01*
X140935501Y-33634919D01*
X140935488Y-33634912D01*
X140798917Y-33578343D01*
X140798907Y-33578340D01*
X140653920Y-33549500D01*
X140653918Y-33549500D01*
X140506082Y-33549500D01*
X140506080Y-33549500D01*
X140361092Y-33578340D01*
X140361082Y-33578343D01*
X140224511Y-33634912D01*
X140224498Y-33634919D01*
X140101584Y-33717048D01*
X140101580Y-33717051D01*
X139997051Y-33821580D01*
X139997048Y-33821584D01*
X139914919Y-33944498D01*
X139914912Y-33944511D01*
X139858343Y-34081082D01*
X139858340Y-34081092D01*
X139829500Y-34226079D01*
X139829500Y-34226082D01*
X139829500Y-34373918D01*
X139829500Y-34373920D01*
X139829499Y-34373920D01*
X136930500Y-34373920D01*
X136930500Y-34226079D01*
X136901659Y-34081092D01*
X136901658Y-34081091D01*
X136901658Y-34081087D01*
X136885296Y-34041585D01*
X136845087Y-33944511D01*
X136845080Y-33944498D01*
X136762951Y-33821584D01*
X136762948Y-33821580D01*
X136658419Y-33717051D01*
X136658415Y-33717048D01*
X136535501Y-33634919D01*
X136535488Y-33634912D01*
X136398917Y-33578343D01*
X136398907Y-33578340D01*
X136253920Y-33549500D01*
X136253918Y-33549500D01*
X136106082Y-33549500D01*
X136106080Y-33549500D01*
X135961092Y-33578340D01*
X135961082Y-33578343D01*
X135824511Y-33634912D01*
X135824498Y-33634919D01*
X135701584Y-33717048D01*
X135701580Y-33717051D01*
X135597051Y-33821580D01*
X135597048Y-33821584D01*
X135514919Y-33944498D01*
X135514912Y-33944511D01*
X135458343Y-34081082D01*
X135458340Y-34081092D01*
X135429500Y-34226079D01*
X135429500Y-34226082D01*
X135429500Y-34373918D01*
X135429500Y-34373920D01*
X135429499Y-34373920D01*
X92600500Y-34373920D01*
X92600500Y-33221154D01*
X159049500Y-33221154D01*
X159049500Y-33378847D01*
X159080261Y-33533490D01*
X159080264Y-33533502D01*
X159140603Y-33679175D01*
X159143475Y-33684547D01*
X159141317Y-33685700D01*
X159158980Y-33742109D01*
X159159000Y-33744323D01*
X159159000Y-34322677D01*
X159141724Y-34381509D01*
X159143479Y-34382447D01*
X159140602Y-34387828D01*
X159080264Y-34533498D01*
X159080261Y-34533510D01*
X159049500Y-34688153D01*
X159049500Y-34845846D01*
X159080261Y-35000489D01*
X159080264Y-35000501D01*
X159140602Y-35146172D01*
X159140609Y-35146185D01*
X159228210Y-35277288D01*
X159228213Y-35277292D01*
X159339707Y-35388786D01*
X159339711Y-35388789D01*
X159470814Y-35476390D01*
X159470827Y-35476397D01*
X159616498Y-35536735D01*
X159616503Y-35536737D01*
X159771153Y-35567499D01*
X159771156Y-35567500D01*
X159771158Y-35567500D01*
X159928844Y-35567500D01*
X159928845Y-35567499D01*
X160083497Y-35536737D01*
X160229179Y-35476394D01*
X160360289Y-35388789D01*
X160471789Y-35277289D01*
X160559394Y-35146179D01*
X160619737Y-35000497D01*
X160650500Y-34845842D01*
X160650500Y-34688158D01*
X160650500Y-34688155D01*
X160650499Y-34688153D01*
X160619737Y-34533503D01*
X160586687Y-34453713D01*
X177149500Y-34453713D01*
X177149500Y-34666286D01*
X177177939Y-34845846D01*
X177182754Y-34876243D01*
X177230002Y-35021658D01*
X177248444Y-35078414D01*
X177344951Y-35267820D01*
X177469890Y-35439786D01*
X177620213Y-35590109D01*
X177792182Y-35715050D01*
X177800946Y-35719516D01*
X177851742Y-35767491D01*
X177868536Y-35835312D01*
X177845998Y-35901447D01*
X177800946Y-35940484D01*
X177792182Y-35944949D01*
X177620213Y-36069890D01*
X177469890Y-36220213D01*
X177344951Y-36392179D01*
X177248444Y-36581585D01*
X177182753Y-36783760D01*
X177149500Y-36993713D01*
X177149500Y-37206286D01*
X177182753Y-37416239D01*
X177248444Y-37618414D01*
X177344951Y-37807820D01*
X177469890Y-37979786D01*
X177620213Y-38130109D01*
X177792179Y-38255048D01*
X177792181Y-38255049D01*
X177792184Y-38255051D01*
X177801493Y-38259794D01*
X177852290Y-38307766D01*
X177869087Y-38375587D01*
X177846552Y-38441722D01*
X177801502Y-38480762D01*
X177792443Y-38485378D01*
X177620540Y-38610272D01*
X177620535Y-38610276D01*
X177470276Y-38760535D01*
X177470272Y-38760540D01*
X177345379Y-38932442D01*
X177248904Y-39121782D01*
X177183242Y-39323870D01*
X177183242Y-39323873D01*
X177172769Y-39390000D01*
X178066988Y-39390000D01*
X178034075Y-39447007D01*
X178000000Y-39574174D01*
X178000000Y-39705826D01*
X178034075Y-39832993D01*
X178066988Y-39890000D01*
X177172769Y-39890000D01*
X177183242Y-39956126D01*
X177183242Y-39956129D01*
X177248904Y-40158217D01*
X177345379Y-40347557D01*
X177470272Y-40519459D01*
X177470276Y-40519464D01*
X177620535Y-40669723D01*
X177620540Y-40669727D01*
X177792444Y-40794622D01*
X177801495Y-40799234D01*
X177852292Y-40847208D01*
X177869087Y-40915029D01*
X177846550Y-40981164D01*
X177801499Y-41020202D01*
X177792182Y-41024949D01*
X177620213Y-41149890D01*
X177469890Y-41300213D01*
X177344951Y-41472179D01*
X177248444Y-41661585D01*
X177182753Y-41863760D01*
X177149500Y-42073713D01*
X177149500Y-42286286D01*
X177182753Y-42496239D01*
X177248444Y-42698414D01*
X177344951Y-42887820D01*
X177469890Y-43059786D01*
X177620213Y-43210109D01*
X177792182Y-43335050D01*
X177800946Y-43339516D01*
X177851742Y-43387491D01*
X177868536Y-43455312D01*
X177845998Y-43521447D01*
X177800946Y-43560484D01*
X177792182Y-43564949D01*
X177620213Y-43689890D01*
X177469890Y-43840213D01*
X177344951Y-44012179D01*
X177248444Y-44201585D01*
X177182753Y-44403760D01*
X177149500Y-44613713D01*
X177149500Y-44826286D01*
X177182150Y-45032433D01*
X177182754Y-45036243D01*
X177236398Y-45201342D01*
X177248444Y-45238414D01*
X177344951Y-45427820D01*
X177469890Y-45599786D01*
X177620213Y-45750109D01*
X177792182Y-45875050D01*
X177800946Y-45879516D01*
X177851742Y-45927491D01*
X177868536Y-45995312D01*
X177845998Y-46061447D01*
X177800946Y-46100484D01*
X177792182Y-46104949D01*
X177620213Y-46229890D01*
X177469890Y-46380213D01*
X177344951Y-46552179D01*
X177248444Y-46741585D01*
X177182753Y-46943760D01*
X177149500Y-47153713D01*
X177149500Y-47366286D01*
X177179892Y-47558178D01*
X177182754Y-47576243D01*
X177236992Y-47743171D01*
X177248444Y-47778414D01*
X177344951Y-47967820D01*
X177469890Y-48139786D01*
X177583430Y-48253326D01*
X177616915Y-48314649D01*
X177611931Y-48384341D01*
X177570059Y-48440274D01*
X177539083Y-48457189D01*
X177407669Y-48506203D01*
X177407664Y-48506206D01*
X177292455Y-48592452D01*
X177292452Y-48592455D01*
X177206206Y-48707664D01*
X177206202Y-48707671D01*
X177155908Y-48842517D01*
X177152278Y-48876286D01*
X177149501Y-48902123D01*
X177149500Y-48902135D01*
X177149500Y-50697870D01*
X177149501Y-50697876D01*
X177155908Y-50757483D01*
X177206202Y-50892328D01*
X177206206Y-50892335D01*
X177292452Y-51007544D01*
X177292455Y-51007547D01*
X177407664Y-51093793D01*
X177407671Y-51093797D01*
X177542517Y-51144091D01*
X177542516Y-51144091D01*
X177549444Y-51144835D01*
X177602127Y-51150500D01*
X179397872Y-51150499D01*
X179457483Y-51144091D01*
X179592331Y-51093796D01*
X179707546Y-51007546D01*
X179793796Y-50892331D01*
X179844091Y-50757483D01*
X179850500Y-50697873D01*
X179850499Y-48902128D01*
X179844091Y-48842517D01*
X179793796Y-48707669D01*
X179793795Y-48707668D01*
X179793793Y-48707664D01*
X179707547Y-48592455D01*
X179707544Y-48592452D01*
X179592335Y-48506206D01*
X179592328Y-48506202D01*
X179460917Y-48457189D01*
X179404983Y-48415318D01*
X179380566Y-48349853D01*
X179395418Y-48281580D01*
X179416563Y-48253332D01*
X179530104Y-48139792D01*
X179556743Y-48103127D01*
X179655048Y-47967820D01*
X179655047Y-47967820D01*
X179655051Y-47967816D01*
X179751557Y-47778412D01*
X179817246Y-47576243D01*
X179850500Y-47366287D01*
X179850500Y-47153713D01*
X179817246Y-46943757D01*
X179751557Y-46741588D01*
X179655051Y-46552184D01*
X179655049Y-46552181D01*
X179655048Y-46552179D01*
X179530109Y-46380213D01*
X179379786Y-46229890D01*
X179207820Y-46104951D01*
X179207115Y-46104591D01*
X179199054Y-46100485D01*
X179148259Y-46052512D01*
X179131463Y-45984692D01*
X179153999Y-45918556D01*
X179199054Y-45879515D01*
X179207816Y-45875051D01*
X179270688Y-45829372D01*
X179379786Y-45750109D01*
X179379788Y-45750106D01*
X179379792Y-45750104D01*
X179530104Y-45599792D01*
X179530106Y-45599788D01*
X179530109Y-45599786D01*
X179655048Y-45427820D01*
X179655047Y-45427820D01*
X179655051Y-45427816D01*
X179751557Y-45238412D01*
X179817246Y-45036243D01*
X179850500Y-44826287D01*
X179850500Y-44613713D01*
X179817246Y-44403757D01*
X179751557Y-44201588D01*
X179655051Y-44012184D01*
X179655049Y-44012181D01*
X179655048Y-44012179D01*
X179530109Y-43840213D01*
X179379786Y-43689890D01*
X179207820Y-43564951D01*
X179207115Y-43564591D01*
X179199054Y-43560485D01*
X179148259Y-43512512D01*
X179131463Y-43444692D01*
X179153999Y-43378556D01*
X179199054Y-43339515D01*
X179207816Y-43335051D01*
X179229789Y-43319086D01*
X179379786Y-43210109D01*
X179379788Y-43210106D01*
X179379792Y-43210104D01*
X179530104Y-43059792D01*
X179530106Y-43059788D01*
X179530109Y-43059786D01*
X179655048Y-42887820D01*
X179655047Y-42887820D01*
X179655051Y-42887816D01*
X179751557Y-42698412D01*
X179817246Y-42496243D01*
X179850500Y-42286287D01*
X179850500Y-42073713D01*
X179817246Y-41863757D01*
X179751557Y-41661588D01*
X179655051Y-41472184D01*
X179655049Y-41472181D01*
X179655048Y-41472179D01*
X179530109Y-41300213D01*
X179379786Y-41149890D01*
X179207817Y-41024949D01*
X179198504Y-41020204D01*
X179147707Y-40972230D01*
X179130912Y-40904409D01*
X179153449Y-40838274D01*
X179198507Y-40799232D01*
X179207558Y-40794620D01*
X179379459Y-40669727D01*
X179379464Y-40669723D01*
X179529723Y-40519464D01*
X179529727Y-40519459D01*
X179654620Y-40347557D01*
X179751095Y-40158217D01*
X179816757Y-39956129D01*
X179816757Y-39956126D01*
X179827231Y-39890000D01*
X178933012Y-39890000D01*
X178965925Y-39832993D01*
X179000000Y-39705826D01*
X179000000Y-39574174D01*
X178965925Y-39447007D01*
X178933012Y-39390000D01*
X179827231Y-39390000D01*
X179816757Y-39323873D01*
X179816757Y-39323870D01*
X179751095Y-39121782D01*
X179654620Y-38932442D01*
X179529727Y-38760540D01*
X179529723Y-38760535D01*
X179379464Y-38610276D01*
X179379459Y-38610272D01*
X179207555Y-38485377D01*
X179198500Y-38480763D01*
X179147706Y-38432788D01*
X179130912Y-38364966D01*
X179153451Y-38298832D01*
X179198508Y-38259793D01*
X179207816Y-38255051D01*
X179287007Y-38197515D01*
X179379786Y-38130109D01*
X179379788Y-38130106D01*
X179379792Y-38130104D01*
X179530104Y-37979792D01*
X179530106Y-37979788D01*
X179530109Y-37979786D01*
X179655048Y-37807820D01*
X179655047Y-37807820D01*
X179655051Y-37807816D01*
X179751557Y-37618412D01*
X179817246Y-37416243D01*
X179850500Y-37206287D01*
X179850500Y-36993713D01*
X179817246Y-36783757D01*
X179751557Y-36581588D01*
X179655051Y-36392184D01*
X179655049Y-36392181D01*
X179655048Y-36392179D01*
X179530109Y-36220213D01*
X179379786Y-36069890D01*
X179207820Y-35944951D01*
X179207115Y-35944591D01*
X179199054Y-35940485D01*
X179148259Y-35892512D01*
X179131463Y-35824692D01*
X179153999Y-35758556D01*
X179199054Y-35719515D01*
X179207816Y-35715051D01*
X179229789Y-35699086D01*
X179379786Y-35590109D01*
X179379788Y-35590106D01*
X179379792Y-35590104D01*
X179530104Y-35439792D01*
X179530106Y-35439788D01*
X179530109Y-35439786D01*
X179648166Y-35277292D01*
X179655051Y-35267816D01*
X179751557Y-35078412D01*
X179817246Y-34876243D01*
X179850500Y-34666287D01*
X179850500Y-34453713D01*
X179817246Y-34243757D01*
X179751557Y-34041588D01*
X179655051Y-33852184D01*
X179655049Y-33852181D01*
X179655048Y-33852179D01*
X179530109Y-33680213D01*
X179379786Y-33529890D01*
X179207820Y-33404951D01*
X179018414Y-33308444D01*
X179018413Y-33308443D01*
X179018412Y-33308443D01*
X178816243Y-33242754D01*
X178816241Y-33242753D01*
X178816240Y-33242753D01*
X178654957Y-33217208D01*
X178606287Y-33209500D01*
X178393713Y-33209500D01*
X178345042Y-33217208D01*
X178183760Y-33242753D01*
X177981585Y-33308444D01*
X177792179Y-33404951D01*
X177620213Y-33529890D01*
X177469890Y-33680213D01*
X177344951Y-33852179D01*
X177248444Y-34041585D01*
X177182753Y-34243760D01*
X177149500Y-34453713D01*
X160586687Y-34453713D01*
X160559394Y-34387821D01*
X160555492Y-34381982D01*
X160550965Y-34371381D01*
X160548151Y-34347662D01*
X160541019Y-34324869D01*
X160541000Y-34322677D01*
X160541000Y-33744323D01*
X160558277Y-33685483D01*
X160556525Y-33684547D01*
X160559390Y-33679185D01*
X160559394Y-33679180D01*
X160619737Y-33533498D01*
X160650500Y-33378843D01*
X160650500Y-33221159D01*
X160650500Y-33221156D01*
X160650499Y-33221154D01*
X160619738Y-33066511D01*
X160619737Y-33066504D01*
X160619735Y-33066499D01*
X160559397Y-32920828D01*
X160559390Y-32920815D01*
X160471789Y-32789712D01*
X160471786Y-32789708D01*
X160360292Y-32678214D01*
X160360288Y-32678211D01*
X160229185Y-32590610D01*
X160229172Y-32590603D01*
X160083501Y-32530265D01*
X160083489Y-32530262D01*
X159928845Y-32499501D01*
X159928842Y-32499501D01*
X159771158Y-32499501D01*
X159771155Y-32499501D01*
X159616510Y-32530262D01*
X159616498Y-32530265D01*
X159470827Y-32590603D01*
X159470814Y-32590610D01*
X159339711Y-32678211D01*
X159339707Y-32678214D01*
X159228213Y-32789708D01*
X159228210Y-32789712D01*
X159140609Y-32920815D01*
X159140602Y-32920828D01*
X159080264Y-33066499D01*
X159080261Y-33066511D01*
X159049500Y-33221154D01*
X92600500Y-33221154D01*
X92600500Y-32753751D01*
X92600726Y-32746264D01*
X92613791Y-32530265D01*
X92618271Y-32456202D01*
X92620076Y-32441341D01*
X92671780Y-32159203D01*
X92675364Y-32144665D01*
X92760696Y-31870822D01*
X92765998Y-31856842D01*
X92883727Y-31595256D01*
X92890678Y-31582011D01*
X93039079Y-31336527D01*
X93047566Y-31324231D01*
X93224480Y-31098417D01*
X93234395Y-31087226D01*
X93437226Y-30884396D01*
X93448417Y-30874481D01*
X93674230Y-30697567D01*
X93686526Y-30689080D01*
X93932016Y-30540676D01*
X93945249Y-30533731D01*
X94206841Y-30415998D01*
X94220821Y-30410696D01*
X94494668Y-30325362D01*
X94509198Y-30321780D01*
X94791344Y-30270075D01*
X94806201Y-30268271D01*
X95096248Y-30250727D01*
X95103735Y-30250501D01*
X95165893Y-30250501D01*
X179034108Y-30250501D01*
X179096249Y-30250501D01*
X179103736Y-30250727D01*
G37*
%TD.AperFunction*%
%TD*%
M02*
